<?xml version="1.0" encoding="UTF-8"?>
<svg id="Layer_1" xmlns="http://www.w3.org/2000/svg" version="1.1" xmlns:xlink="http://www.w3.org/1999/xlink" viewBox="0 0 1200 1200">
  <!-- Generator: Adobe Illustrator 29.7.1, SVG Export Plug-In . SVG Version: 2.1.1 Build 8)  -->
  <defs>
    <style>
      .st0 {
        fill: url(#linear-gradient1);
      }

      .st1 {
        fill: url(#linear-gradient);
      }
    </style>
    <linearGradient id="linear-gradient" x1="93.2" y1="610.19" x2="1117.82" y2="610.19" gradientTransform="translate(0 1202) scale(1 -1)" gradientUnits="userSpaceOnUse">
      <stop offset="0" stop-color="#f7de7b"/>
      <stop offset=".1" stop-color="#dbb85b"/>
      <stop offset=".2" stop-color="#c59942"/>
      <stop offset=".28" stop-color="#b78632"/>
      <stop offset=".34" stop-color="#b27f2c"/>
      <stop offset=".37" stop-color="#ba8a35"/>
      <stop offset=".45" stop-color="#d0a84e"/>
      <stop offset=".53" stop-color="#e1c062"/>
      <stop offset=".62" stop-color="#edd170"/>
      <stop offset=".72" stop-color="#f5db78"/>
      <stop offset=".84" stop-color="#f7de7b"/>
      <stop offset=".87" stop-color="#f4da77"/>
      <stop offset=".91" stop-color="#ebcd6d"/>
      <stop offset=".94" stop-color="#dbb85b"/>
      <stop offset=".97" stop-color="#c69b43"/>
      <stop offset="1" stop-color="#b27f2c"/>
    </linearGradient>
    <linearGradient id="linear-gradient1" x1="434.4" y1="618.68" x2="802.12" y2="618.68" xlink:href="#linear-gradient"/>
  </defs>
  <path class="st1" d="M499.99,267.14c20.23-6.57,36.85-19.15,48.43-35.18,0,0-50.05,8.13-70.18-33.81,9.46-19.11,10.17-42.23-.17-62.74-6.96-13.81-17.85-24.35-30.69-30.86-6.59,12.77-9.37,27.67-7.03,42.96,3.51,22.84,17.74,41.38,36.74,51.4,8.05,45.52-36.98,68.23-36.98,68.23,18.82,6.16,39.64,6.57,59.88,0ZM355.88,179.29c5.38-3.93,6.59-11.45,2.67-16.85-3.93-5.38-11.45-6.59-16.85-2.67-5.38,3.93-6.59,11.45-2.67,16.85,3.93,5.4,11.45,6.59,16.85,2.67ZM290.3,226.93c5.4-3.93,6.59-11.45,2.67-16.85s-11.45-6.59-16.85-2.67-6.59,11.45-2.67,16.85c3.93,5.4,11.45,6.59,16.85,2.67ZM418.47,147.41c6.33-2.06,9.8-8.87,7.74-15.2s-8.87-9.8-15.2-7.74c-6.33,2.06-9.8,8.87-7.74,15.2s8.87,9.78,15.2,7.74ZM424.93,260.61c4.88,2.56,9.91,4.84,15.16,6.55v-.04s.02.02.04.02c4.53-13.9,5.83-28.71,3.84-43.29-2.08-15.42-7.85-30.58-17.63-44.05-12.58-17.33-29.82-29.3-48.77-35.35h0c-6.27,18.91-6.7,39.88-.09,60.25,8.15,25.16,25.72,44.57,47.45,55.91ZM564.97,111.36c6.66,0,12.06-5.4,12.06-12.06s-5.4-12.06-12.06-12.06-12.06,5.4-12.06,12.06,5.4,12.06,12.06,12.06ZM112.98,563.37c6.66,0,12.06-5.4,12.06-12.06s-5.4-12.06-12.06-12.06-12.06,5.4-12.06,12.06,5.38,12.06,12.06,12.06ZM495.57,122.33c6.33-2.06,9.8-8.87,7.74-15.2-2.06-6.33-8.87-9.8-15.2-7.74-6.33,2.06-9.8,8.87-7.74,15.2,2.06,6.35,8.87,9.8,15.2,7.74ZM646.04,111.36c6.66,0,12.06-5.4,12.06-12.06s-5.4-12.06-12.06-12.06-12.06,5.4-12.06,12.06,5.4,12.06,12.06,12.06ZM548.51,231.94l.02-.02s.02.02.04.02c8.52-11.71,14.34-25.24,16.98-39.56,2.88-15.44,2.08-31.77-3.12-47.78-6.61-20.36-19.3-37.09-35.48-48.69h0c-11.8,16.05-18.69,35.85-18.69,57.28,0,26.46,10.71,50.36,27.87,67.84,3.84,3.93,7.92,7.66,12.38,10.91ZM440.03,267.21s-45.09,23.21-77.21-10.48c3.1-21.08-3.38-43.31-19.54-59.62-10.89-10.97-24.51-17.65-38.71-19.87-2.32,14.18-.37,29.21,6.59,43.03,10.39,20.62,29.65,33.88,50.81,37.54,21.71,40.82-14.08,76.32-14.08,76.32,19.78.04,39.73-6.01,56.93-18.5,17.22-12.51,29.13-29.6,35.2-48.43ZM145.88,412.56c6.33,2.06,13.14-1.41,15.2-7.74,2.06-6.33-1.41-13.14-7.74-15.2s-13.14,1.41-15.2,7.74c-2.06,6.33,1.41,13.14,7.74,15.2ZM193.48,412.66c21.36,15.53,46.95,20.91,71.13,17.35,5.49-.8,10.93-1.91,16.22-3.62t-.02-.04s.02,0,.04-.02c-4.47-13.77-12.04-26.42-22.06-36.98-10.8-11.39-24.44-20.39-40.43-25.57-20.36-6.61-41.34-6.18-60.25.09h0c6.05,19,18.02,36.22,35.35,48.8ZM280.82,486.34c6.57-20.23,6.16-41.08,0-59.86,0,0-22.84,45.28-68.62,36.91-9.89-18.89-28.19-33.05-50.86-36.74-15.27-2.49-30.19.13-43.01,6.68,6.44,12.84,16.87,23.86,30.62,30.95,20.54,10.58,43.92,9.98,63.18.5,41.55,20.26,33.46,70.01,33.46,70.01,16.07-11.6,28.65-28.22,35.22-48.45ZM158.29,548.77c25.55,8.31,52.07,5.42,74.19-5.92,4.58-2.32,8.98-4.99,13.12-8.02l-.02-.02s.02-.02.04-.02c-8.48-11.71-19.56-21.36-32.34-28.3-13.79-7.53-29.58-11.86-46.43-11.86-21.41,0-41.23,6.9-57.28,18.69h0c11.62,16.16,28.35,28.84,48.71,35.46ZM120.83,489.65c6.33,2.06,13.14-1.41,15.2-7.74,2.06-6.33-1.41-13.14-7.74-15.2s-13.14,1.41-15.2,7.74c-2.06,6.33,1.39,13.14,7.74,15.2ZM331.26,332.59c5.49.93,11.02,1.58,16.59,1.56v-.04h.04c0-14.44-3.27-28.76-9.5-41.86-6.74-14.23-16.96-27.02-30.6-36.93-17.33-12.58-37.41-18.65-57.32-18.54h0c-.11,19.91,5.96,39.99,18.54,57.32,15.51,21.36,38.15,34.4,62.24,38.5ZM329.31,391.15c12.51-17.22,18.56-37.15,18.5-56.93,0,0-35.7,36-76.66,13.9-3.58-21.02-16.59-40.14-37.02-50.66-13.75-7.07-28.76-9.22-42.96-6.94,2.17,14.21,8.7,27.89,19.56,38.89,16.27,16.42,38.67,23.05,59.94,20,33.27,32.1,10.19,76.93,10.19,76.93,18.85-6.03,35.94-17.96,48.45-35.18ZM223.76,279.29c5.4,3.93,12.93,2.71,16.85-2.67,3.93-5.4,2.71-12.93-2.67-16.85-5.4-3.93-12.93-2.71-16.85,2.67-3.9,5.4-2.71,12.95,2.67,16.85ZM176.11,344.87c5.4,3.93,12.93,2.71,16.85-2.67s2.71-12.93-2.67-16.85c-5.4-3.93-12.93-2.71-16.85,2.67-3.9,5.4-2.71,12.95,2.67,16.85ZM662.43,231.92s-50.12-7.72-56.3-53.85c14.9-15.25,22.73-37.02,19.24-59.73-2.36-15.29-9.46-28.67-19.65-38.84-10.21,10.11-17.46,23.42-19.95,38.69-3.73,22.79,4.08,44.85,19.04,60.25-6.42,45.78-56.24,53.46-56.24,53.46,15.98,11.67,35.65,18.5,56.93,18.5,21.28.02,40.97-6.81,56.93-18.48ZM654.52,218.84c2.32,4.55,4.97,8.94,7.98,13.08l.02-.02s.02.02.02.04c11.8-8.57,21.54-19.76,28.5-32.66,7.42-13.73,11.69-29.41,11.69-46.11,0-21.41-6.9-41.23-18.69-57.28h0c-16.18,11.6-28.87,28.32-35.48,48.69-8.28,25.57-5.4,52.11,5.96,74.26ZM930.18,486.31c6.57,20.23,19.15,36.85,35.18,48.43,0,0-8.13-50.05,33.81-70.18,19.11,9.46,42.23,10.17,62.74-.17,13.81-6.96,24.35-17.85,30.86-30.69-12.77-6.59-27.67-9.37-42.96-7.03-22.84,3.51-41.38,17.74-51.4,36.74-45.52,8.05-68.23-36.98-68.23-36.98-6.16,18.8-6.57,39.64,0,59.88ZM1049.94,404.79c2.06,6.33,8.87,9.8,15.2,7.74s9.8-8.87,7.74-15.2c-2.06-6.33-8.87-9.8-15.2-7.74-6.33,2.06-9.8,8.87-7.74,15.2ZM1018.04,342.2c3.93,5.4,11.45,6.59,16.85,2.67,5.4-3.93,6.59-11.45,2.67-16.85-3.93-5.38-11.45-6.59-16.85-2.67-5.4,3.9-6.59,11.45-2.67,16.85ZM1085.99,551.29c0,6.66,5.4,12.06,12.06,12.06s12.06-5.4,12.06-12.06-5.4-12.06-12.06-12.06-12.06,5.38-12.06,12.06ZM987.24,279.29c5.4-3.93,6.59-11.45,2.67-16.85-3.93-5.38-11.45-6.59-16.85-2.67-5.38,3.93-6.59,11.45-2.67,16.85,3.9,5.38,11.45,6.57,16.85,2.67ZM965.4,648.75s7.72-50.12,53.85-56.3c15.25,14.9,37.02,22.73,59.73,19.24,15.29-2.36,28.67-9.46,38.84-19.65-10.11-10.21-23.42-17.46-38.69-19.95-22.79-3.73-44.85,4.08-60.25,19.04-45.78-6.42-53.46-56.24-53.46-56.24-11.67,15.98-18.5,35.65-18.5,56.93-.02,21.28,6.81,40.95,18.48,56.93ZM1082.73,466.69c-6.33,2.06-9.8,8.87-7.74,15.2,2.06,6.33,8.87,9.8,15.2,7.74s9.8-8.87,7.74-15.2c-2.06-6.33-8.87-9.8-15.2-7.74ZM1044.15,494.58c-26.39,0-50.27,10.67-67.75,27.76-3.97,3.88-7.74,7.98-11,12.47l.02.02s-.02.02-.02.04c11.69,8.5,25.18,14.31,39.45,16.96,15.46,2.91,31.84,2.1,47.86-3.1,20.36-6.61,37.09-19.3,48.69-35.48h0c-16.03-11.78-35.85-18.67-57.25-18.67ZM992.62,363.78c-25.11,8.15-44.52,25.7-55.87,47.39-2.58,4.9-4.88,9.95-6.59,15.22h.04s-.02.02-.02.04c13.75,4.47,28.39,5.77,42.81,3.88,15.59-2.02,30.9-7.79,44.52-17.68,17.33-12.58,29.3-29.82,35.35-48.78h0c-18.91-6.27-39.88-6.7-60.25-.09ZM715.41,122.33c6.33,2.06,13.14-1.41,15.2-7.74,2.06-6.33-1.41-13.14-7.74-15.2-6.33-2.06-13.14,1.41-15.2,7.74-2.06,6.33,1.41,13.14,7.74,15.2ZM784.66,179.81c-15.53,21.36-20.91,46.95-17.35,71.13.8,5.49,1.91,10.93,3.62,16.22t.04-.02s0,.02.02.04c13.68-4.45,26.22-11.95,36.74-21.86,11.49-10.82,20.58-24.55,25.81-40.62,6.61-20.36,6.18-41.34-.09-60.25h0c-19,6.03-36.22,18.02-48.8,35.35ZM930.12,426.35s-23.21-45.09,10.47-77.21c21.08,3.1,43.31-3.38,59.62-19.54,10.97-10.89,17.63-24.51,19.87-38.71-14.18-2.32-29.21-.37-43.03,6.59-20.62,10.39-33.88,29.65-37.54,50.81-40.82,21.71-76.32-14.08-76.32-14.08-.04,19.78,6.01,39.73,18.5,56.93,12.51,17.22,29.6,29.13,48.43,35.2ZM710.99,267.12c20.23,6.57,41.08,6.16,59.86,0,0,0-45.28-22.84-36.91-68.62,18.89-9.89,33.05-28.19,36.74-50.86,2.49-15.27-.13-30.19-6.68-43.01-12.84,6.44-23.86,16.87-30.95,30.62-10.58,20.54-9.98,43.92-.5,63.18-20.26,41.55-70.01,33.46-70.01,33.46,11.6,16.07,28.22,28.65,48.45,35.22ZM792.51,147.38c6.33,2.06,13.14-1.41,15.2-7.74,2.06-6.33-1.41-13.14-7.74-15.2-6.33-2.06-13.14,1.41-15.2,7.74-2.06,6.35,1.41,13.14,7.74,15.2ZM920.71,226.93c5.38,3.93,12.93,2.71,16.85-2.67,3.93-5.4,2.71-12.93-2.67-16.85s-12.93-2.71-16.85,2.67c-3.93,5.4-2.73,12.93,2.67,16.85ZM903.21,255.32c-21.38,15.53-34.42,38.21-38.5,62.35-.93,5.44-1.56,10.95-1.56,16.5h.04v.04c14.44,0,28.74-3.27,41.84-9.5,14.23-6.74,27.04-16.96,36.96-30.6,12.58-17.33,18.65-37.41,18.54-57.32h0c-19.91-.13-39.99,5.94-57.32,18.52ZM806.18,315.61c17.22,12.51,37.15,18.56,56.93,18.5,0,0-36-35.7-13.9-76.67,21.01-3.58,40.14-16.59,50.66-37.02,7.07-13.75,9.2-28.76,6.94-42.96-14.21,2.17-27.89,8.7-38.89,19.56-16.42,16.27-23.05,38.67-20,59.94-32.1,33.27-76.93,10.19-76.93,10.19,6.05,18.85,17.96,35.96,35.18,48.45ZM855.12,179.29c5.38,3.93,12.93,2.73,16.85-2.67,3.93-5.38,2.71-12.93-2.67-16.85s-12.93-2.71-16.85,2.67c-3.93,5.38-2.73,12.93,2.67,16.85ZM662.52,951.71l-.02.02s-.02-.02-.04-.02c-8.52,11.69-14.31,25.22-16.98,39.51-2.88,15.44-2.08,31.79,3.1,47.8,6.61,20.36,19.3,37.09,35.48,48.69h0c11.8-16.05,18.69-35.87,18.69-57.28,0-26.39-10.67-50.27-27.76-67.75-3.88-3.95-7.98-7.7-12.47-10.97ZM786.16,923.08c-4.9-2.58-9.95-4.88-15.22-6.59v.04s-.02-.02-.04-.02c-4.49,13.75-5.77,28.41-3.88,42.83,2.04,15.57,7.79,30.88,17.68,44.5,12.58,17.33,29.82,29.3,48.77,35.35h0c6.27-18.91,6.7-39.88.09-60.25-8.18-25.14-25.7-44.55-47.39-55.87ZM920.73,956.69c-5.38,3.93-6.59,11.45-2.67,16.85s11.45,6.59,16.85,2.67c5.4-3.93,6.59-11.45,2.67-16.85-3.93-5.38-11.47-6.57-16.85-2.67ZM646.06,1072.29c-6.66,0-12.06,5.4-12.06,12.06s5.4,12.06,12.06,12.06,12.06-5.4,12.06-12.06-5.4-12.06-12.06-12.06ZM771,916.44s45.09-23.21,77.21,10.47c-3.1,21.08,3.38,43.31,19.54,59.62,10.89,10.97,24.51,17.65,38.71,19.87,2.32-14.18.37-29.21-6.59-43.03-10.39-20.62-29.65-33.88-50.81-37.54-21.71-40.82,14.08-76.32,14.08-76.32-19.78-.04-39.71,6.01-56.93,18.5-17.22,12.51-29.15,29.6-35.2,48.43ZM711.01,916.51c-20.23,6.57-36.85,19.15-48.43,35.18,0,0,50.05-8.13,70.18,33.81-9.46,19.11-10.17,42.23.17,62.74,6.96,13.81,17.85,24.35,30.69,30.86,6.59-12.77,9.37-27.67,7.03-42.96-3.51-22.84-17.74-41.38-36.74-51.4-8.05-45.52,36.98-68.23,36.98-68.23-18.8-6.16-39.64-6.57-59.88,0ZM879.67,851.03c-5.47-.93-10.97-1.56-16.5-1.56v.04h-.04c0,14.4,3.25,28.67,9.46,41.77,6.74,14.25,16.98,27.11,30.64,37.04,17.33,12.58,37.41,18.65,57.32,18.54h0c.11-19.91-5.96-39.99-18.54-57.32-15.53-21.41-38.21-34.44-62.33-38.52ZM715.44,1061.29c-6.33,2.06-9.8,8.87-7.74,15.2,2.06,6.33,8.87,9.8,15.2,7.74s9.8-8.87,7.74-15.2c-2.06-6.33-8.87-9.8-15.2-7.74ZM548.57,951.71s50.12,7.72,56.3,53.85c-14.9,15.25-22.73,37.02-19.24,59.73,2.36,15.29,9.46,28.67,19.65,38.84,10.21-10.11,17.46-23.42,19.95-38.69,3.73-22.79-4.08-44.85-19.04-60.25,6.42-45.78,56.24-53.46,56.24-53.46-15.98-11.67-35.65-18.5-56.93-18.5-21.25,0-40.95,6.81-56.93,18.48ZM792.53,1036.24c-6.33,2.06-9.8,8.87-7.74,15.2s8.87,9.8,15.2,7.74c6.33-2.06,9.8-8.87,7.74-15.2-2.06-6.33-8.87-9.8-15.2-7.74ZM855.15,1004.34c-5.4,3.93-6.59,11.45-2.67,16.85,3.93,5.4,11.45,6.59,16.85,2.67,5.38-3.93,6.59-11.45,2.67-16.85-3.93-5.38-11.47-6.57-16.85-2.67ZM1052.72,634.87c-25.57-8.31-52.11-5.4-74.28,5.96-4.55,2.32-8.91,4.97-13.06,7.98l.02.02s-.02.02-.04.02c8.57,11.82,19.78,21.56,32.7,28.52,13.71,7.4,29.39,11.65,46.06,11.65,21.41,0,41.23-6.9,57.28-18.69h0c-11.6-16.16-28.32-28.84-48.69-35.46ZM930.21,697.31c-6.57,20.23-6.16,41.08,0,59.86,0,0,22.84-45.28,68.62-36.91,9.89,18.89,28.19,33.05,50.86,36.74,15.27,2.49,30.19-.13,43.01-6.68-6.44-12.84-16.87-23.86-30.62-30.95-20.54-10.58-43.92-9.98-63.18-.5-41.55-20.26-33.46-70.01-33.46-70.01-16.07,11.6-28.65,28.22-35.22,48.45ZM1098.05,620.28c-6.66,0-12.06,5.4-12.06,12.06s5.4,12.06,12.06,12.06,12.06-5.4,12.06-12.06c0-6.66-5.4-12.06-12.06-12.06ZM1090.19,693.99c-6.33-2.06-13.14,1.41-15.2,7.74s1.41,13.14,7.74,15.2c6.33,2.06,13.14-1.41,15.2-7.74,2.06-6.33-1.41-13.14-7.74-15.2ZM1017.54,770.96c-21.38-15.55-47.02-20.93-71.24-17.35-5.47.8-10.87,1.91-16.11,3.62t.02.04s-.02,0-.04.02c4.45,13.71,11.97,26.26,21.9,36.78,10.82,11.47,24.53,20.54,40.6,25.76,20.36,6.61,41.34,6.18,60.25-.09h0c-6.07-18.98-18.07-36.2-35.37-48.8ZM1034.89,838.78c-5.4-3.93-12.93-2.71-16.85,2.67-3.93,5.38-2.71,12.93,2.67,16.85,5.4,3.93,12.93,2.71,16.85-2.67,3.93-5.4,2.73-12.95-2.67-16.85ZM881.71,792.48c-12.51,17.22-18.56,37.15-18.5,56.93,0,0,35.7-36,76.66-13.9,3.58,21.02,16.59,40.14,37.02,50.66,13.75,7.07,28.76,9.2,42.96,6.94-2.17-14.21-8.7-27.89-19.56-38.89-16.27-16.42-38.67-23.05-59.94-20-33.27-32.1-10.19-76.93-10.19-76.93-18.85,6.05-35.94,17.98-48.45,35.18ZM987.24,904.36c-5.4-3.93-12.93-2.71-16.85,2.67-3.93,5.4-2.71,12.93,2.67,16.85,5.4,3.93,12.93,2.71,16.85-2.67,3.93-5.4,2.73-12.95-2.67-16.85ZM1065.15,771.09c-6.33-2.06-13.14,1.41-15.2,7.74-2.06,6.33,1.41,13.14,7.74,15.2,6.33,2.06,13.14-1.41,15.2-7.74,2.06-6.33-1.41-13.14-7.74-15.2ZM307.8,928.33c21.41-15.55,34.46-38.28,38.52-62.44.91-5.42,1.54-10.89,1.54-16.42h-.04v-.04c-14.57,0-29.04,3.32-42.25,9.67-14.08,6.74-26.74,16.92-36.54,30.43-12.58,17.33-18.65,37.41-18.54,57.32h0c19.91.13,40.01-5.94,57.32-18.52ZM192.99,841.45c-3.93-5.4-11.45-6.59-16.85-2.67s-6.59,11.45-2.67,16.85,11.45,6.59,16.85,2.67c5.38-3.9,6.57-11.45,2.67-16.85ZM280.82,697.33c-6.57-20.23-19.15-36.85-35.18-48.43,0,0,8.13,50.05-33.81,70.18-19.11-9.46-42.23-10.17-62.74.17-13.81,6.96-24.35,17.85-30.86,30.69,12.77,6.59,27.67,9.37,42.96,7.03,22.84-3.51,41.38-17.74,51.4-36.74,45.52-8.05,68.23,36.98,68.23,36.98,6.16-18.82,6.57-39.64,0-59.88ZM218.38,819.87c25.11-8.15,44.52-25.7,55.87-47.39,2.58-4.9,4.88-9.95,6.59-15.22h-.04s.02-.02.02-.04c-13.75-4.49-28.41-5.77-42.83-3.88-15.57,2.04-30.9,7.79-44.5,17.68-17.33,12.58-29.3,29.82-35.35,48.77h0c18.91,6.27,39.9,6.7,60.25.09ZM223.78,904.36c-5.4,3.93-6.59,11.45-2.67,16.85s11.45,6.59,16.85,2.67c5.4-3.93,6.59-11.45,2.67-16.85-3.93-5.38-11.47-6.57-16.85-2.67ZM280.88,757.3s23.21,45.09-10.48,77.21c-21.08-3.1-43.31,3.38-59.62,19.54-10.97,10.89-17.63,24.51-19.87,38.71,14.18,2.32,29.21.37,43.03-6.59,20.62-10.39,33.88-29.65,37.54-50.81,40.82-21.71,76.32,14.08,76.32,14.08.04-19.78-6.01-39.71-18.5-56.93-12.51-17.22-29.6-29.13-48.43-35.2ZM166.87,689.07c26.46,0,50.36-10.71,67.84-27.87,3.95-3.86,7.66-7.92,10.91-12.38l-.02-.02s.02-.02.02-.04c-11.75-8.57-25.37-14.38-39.75-17.02-15.38-2.84-31.64-2.02-47.58,3.14-20.36,6.61-37.09,19.3-48.69,35.48h0c16.05,11.82,35.87,18.72,57.28,18.72ZM245.62,534.89s-7.72,50.12-53.85,56.3c-15.25-14.9-37.02-22.73-59.73-19.24-15.29,2.36-28.67,9.46-38.84,19.65,10.11,10.21,23.42,17.46,38.69,19.95,22.79,3.73,44.85-4.08,60.25-19.04,45.78,6.42,53.46,56.24,53.46,56.24,11.67-15.98,18.5-35.65,18.5-56.93.02-21.28-6.81-40.95-18.48-56.93ZM128.29,716.96c6.33-2.06,9.8-8.87,7.74-15.2s-8.87-9.8-15.2-7.74c-6.33,2.06-9.8,8.87-7.74,15.2s8.87,9.8,15.2,7.74ZM161.08,778.86c-2.06-6.33-8.87-9.8-15.2-7.74-6.33,2.06-9.8,8.87-7.74,15.2s8.87,9.8,15.2,7.74c6.33-2.06,9.8-8.87,7.74-15.2ZM418.49,1036.26c-6.33-2.06-13.14,1.41-15.2,7.74s1.41,13.14,7.74,15.2,13.14-1.41,15.2-7.74c2.06-6.35-1.41-13.14-7.74-15.2ZM495.59,1061.31c-6.33-2.06-13.14,1.41-15.2,7.74-2.06,6.33,1.41,13.14,7.74,15.2,6.33,2.06,13.14-1.41,15.2-7.74,2.06-6.35-1.41-13.14-7.74-15.2ZM564.99,1072.29c-6.66,0-12.06,5.4-12.06,12.06s5.4,12.06,12.06,12.06,12.06-5.4,12.06-12.06-5.4-12.06-12.06-12.06ZM500.01,916.51c-20.23-6.57-41.08-6.16-59.86,0,0,0,45.28,22.84,36.91,68.62-18.89,9.89-33.05,28.19-36.74,50.86-2.49,15.27.13,30.19,6.68,43.01,12.84-6.44,23.86-16.87,30.95-30.62,10.58-20.54,9.98-43.92.5-63.18,20.26-41.55,70.01-33.46,70.01-33.46-11.6-16.07-28.22-28.63-48.45-35.22ZM556.51,964.78c-2.32-4.55-4.97-8.94-7.98-13.08l-.02.02s-.02-.02-.02-.04c-11.71,8.5-21.38,19.58-28.32,32.38-7.53,13.79-11.86,29.58-11.86,46.39,0,21.41,6.9,41.23,18.69,57.28h0c16.18-11.6,28.87-28.32,35.48-48.69,8.28-25.57,5.38-52.09-5.96-74.26ZM290.32,956.72c-5.4-3.93-12.93-2.71-16.85,2.67-3.93,5.4-2.71,12.93,2.67,16.85,5.4,3.93,12.93,2.71,16.85-2.67,3.9-5.4,2.71-12.95-2.67-16.85ZM426.36,1003.84c15.51-21.36,20.91-46.93,17.35-71.11-.8-5.49-1.91-10.95-3.62-16.24t-.04.02s0-.02-.02-.04c-13.77,4.47-26.42,12.04-36.98,22.06-11.39,10.8-20.39,24.44-25.57,40.43-6.61,20.36-6.18,41.34.09,60.25h0c18.98-6.05,36.2-18.02,48.8-35.35ZM355.9,1004.36c-5.38-3.93-12.93-2.71-16.85,2.67-3.93,5.4-2.71,12.93,2.67,16.85s12.93,2.71,16.85-2.67c3.9-5.4,2.71-12.93-2.67-16.85ZM125.04,632.36c0-6.66-5.4-12.06-12.06-12.06s-12.06,5.4-12.06,12.06,5.4,12.06,12.06,12.06,12.06-5.4,12.06-12.06ZM404.85,868.04c-17.22-12.51-37.15-18.56-56.93-18.5,0,0,36,35.7,13.9,76.67-21.02,3.58-40.14,16.59-50.66,37.02-7.07,13.75-9.2,28.76-6.94,42.96,14.21-2.17,27.89-8.7,38.89-19.56,16.42-16.27,23.05-38.67,20-59.94,32.1-33.27,76.93-10.19,76.93-10.19-6.05-18.87-17.96-35.96-35.18-48.45Z"/>
  <path class="st0" d="M706.42,785.93c.69,5.3,1.27,9.74,1.92,14.75-19-.71-32.77-10.07-45.03-24.92-.29,4.78-.46,7.76-.71,11.81-4.67-2.32-8.86-4.17-12.87-6.4-36.31-20.13-60.24-51.37-79.3-87.35-13.64-25.78-28.45-50.95-43.07-76.21-2.96-5.13-7.32-9.49-11.18-14.08-10.32-12.22-22.8-19.21-39.55-18.13-13.45.86-27.01.17-40.5.17-.58-.94-1.15-1.88-1.73-2.82,3.25-3.9,5.76-9.36,9.93-11.37,8.8-4.21,18.48-6.63,27.8-9.74,1.71-.56,3.92-.33,5.19-1.36,28.01-22.53,57.15-23.88,87.1-3.9.86.56,1.75,1.11,2.57,1.61,40.76-27.03,60.92-78.78,25.45-124.21-15.2-19.48-35.29-32.27-57.84-41.51-29.1-11.93-59.44-19.46-90.27-25.22-2.5-.46-4.96-1.11-7.36-2.36,58.4-5.97,116.74-11.1,174.31,5.57,8.7,2.52,17.21,6.22,25.2,10.51,19.44,10.43,28.51,22.17,35.62,45.05,2.59-4.84,4.69-8.8,7.01-13.16,19.52,20.19,25.11,43.15,16,70.96,5.28-3.17,9.09-5.46,13.45-8.09,5.88,25.97.31,48.43-18.02,68.56,5.21-.65,8.99-1.11,13.95-1.73-13.6,41.94-38.63,72.52-79.01,91.27,53.14,63.41,100.51,131.55,176.64,173.55-34.85,1.79-66.68-.86-95.69-21.25Z"/>
</svg>