<?xml version="1.0" encoding="utf-8"?>
<!-- Generator: Adobe Illustrator 24.0.0, SVG Export Plug-In . SVG Version: 6.00 Build 0)  -->
<svg version="1.1" id="Layer_1" xmlns="http://www.w3.org/2000/svg" xmlns:xlink="http://www.w3.org/1999/xlink" x="0px" y="0px"
	 viewBox="0 0 1920 1080" style="enable-background:new 0 0 1920 1080;" xml:space="preserve">
<style type="text/css">
	.st0{fill:url(#SVGID_1_);}
	.st1{fill:url(#SVGID_2_);}
	.st2{fill:url(#SVGID_3_);}
	.st3{fill:url(#SVGID_4_);}
	.st4{fill:url(#SVGID_5_);}
	.st5{fill:url(#SVGID_6_);}
	.st6{fill:url(#SVGID_7_);}
	.st7{fill:url(#SVGID_8_);}
	.st8{fill:url(#SVGID_9_);}
	.st9{fill:url(#SVGID_10_);}
	.st10{fill:url(#SVGID_11_);}
	.st11{fill:url(#SVGID_12_);}
	.st12{fill:url(#SVGID_13_);}
	.st13{fill:url(#SVGID_14_);}
	.st14{fill:url(#SVGID_15_);}
	.st15{fill:url(#SVGID_16_);}
	.st16{fill:url(#SVGID_17_);}
	.st17{fill:url(#SVGID_18_);}
	.st18{fill:url(#SVGID_19_);}
	.st19{fill:url(#SVGID_20_);}
	.st20{fill:url(#SVGID_21_);}
	.st21{fill:url(#SVGID_22_);}
	.st22{fill:url(#SVGID_23_);}
	.st23{fill:url(#SVGID_24_);}
	.st24{fill:url(#SVGID_25_);}
	.st25{fill:url(#SVGID_26_);}
</style>
<rect x="-19" y="-7" width="1944" height="1100"/>
<g>
	<linearGradient id="SVGID_1_" gradientUnits="userSpaceOnUse" x1="681.6606" y1="592.3366" x2="785.6365" y2="592.3366">
		<stop  offset="0" style="stop-color:#F7DE7B"/>
		<stop  offset="0.0995" style="stop-color:#DBB85B"/>
		<stop  offset="0.1991" style="stop-color:#C59942"/>
		<stop  offset="0.2837" style="stop-color:#B78632"/>
		<stop  offset="0.3424" style="stop-color:#B27F2C"/>
		<stop  offset="0.3673" style="stop-color:#BA8A35"/>
		<stop  offset="0.4474" style="stop-color:#D0A84E"/>
		<stop  offset="0.5318" style="stop-color:#E1C062"/>
		<stop  offset="0.6213" style="stop-color:#EDD170"/>
		<stop  offset="0.7193" style="stop-color:#F5DB78"/>
		<stop  offset="0.8422" style="stop-color:#F7DE7B"/>
		<stop  offset="0.8734" style="stop-color:#F4DA77"/>
		<stop  offset="0.9063" style="stop-color:#EBCD6D"/>
		<stop  offset="0.9399" style="stop-color:#DBB85B"/>
		<stop  offset="0.9739" style="stop-color:#C69B43"/>
		<stop  offset="1" style="stop-color:#B27F2C"/>
	</linearGradient>
	<path class="st0" d="M783.94,548.19c-4.58,0-8.24,3.49-8.37,8.08v72.25c0.1,4.53,3.74,7.95,8.27,7.95h1.7V638h-41.87v-1.52h1.65
		c4.57,0,8.23-3.47,8.37-8.05v-32.94h-40.08v32.93c0.14,4.58,3.8,8.05,8.37,8.05h1.65V638h-41.98v-1.52h1.71
		c4.48,0,8.24-3.49,8.27-8.08v-72.12c-0.03-4.59-3.79-8.08-8.27-8.08h-1.71v-1.52h41.98v1.52h-1.66c-4.55,0-8.19,3.45-8.37,8v33.31
		h40.08v-33.22c-0.13-4.59-3.79-8.08-8.37-8.08h-1.65v-1.52h41.97v1.52L783.94,548.19z"/>
	<linearGradient id="SVGID_2_" gradientUnits="userSpaceOnUse" x1="794.5175" y1="592.3572" x2="902.2321" y2="592.3572">
		<stop  offset="0" style="stop-color:#F7DE7B"/>
		<stop  offset="0.0995" style="stop-color:#DBB85B"/>
		<stop  offset="0.1991" style="stop-color:#C59942"/>
		<stop  offset="0.2837" style="stop-color:#B78632"/>
		<stop  offset="0.3424" style="stop-color:#B27F2C"/>
		<stop  offset="0.3673" style="stop-color:#BA8A35"/>
		<stop  offset="0.4474" style="stop-color:#D0A84E"/>
		<stop  offset="0.5318" style="stop-color:#E1C062"/>
		<stop  offset="0.6213" style="stop-color:#EDD170"/>
		<stop  offset="0.7193" style="stop-color:#F5DB78"/>
		<stop  offset="0.8422" style="stop-color:#F7DE7B"/>
		<stop  offset="0.8734" style="stop-color:#F4DA77"/>
		<stop  offset="0.9063" style="stop-color:#EBCD6D"/>
		<stop  offset="0.9399" style="stop-color:#DBB85B"/>
		<stop  offset="0.9739" style="stop-color:#C69B43"/>
		<stop  offset="1" style="stop-color:#B27F2C"/>
	</linearGradient>
	<path class="st1" d="M902.23,592.39c0,29.35-21.61,47.59-53.91,47.59c-32.2,0-53.81-18.24-53.81-47.59
		c0-29.45,21.6-47.65,53.81-47.65C880.62,544.74,902.23,562.94,902.23,592.39z M878.82,592.39c0-25.77-11.95-41.67-30.49-41.67
		c-18.45,0-30.5,15.9-30.5,41.67c0,25.66,12.05,41.57,30.5,41.57C866.87,633.96,878.82,618.05,878.82,592.39z"/>
	<linearGradient id="SVGID_3_" gradientUnits="userSpaceOnUse" x1="907.6251" y1="591.1011" x2="995.7906" y2="591.1011">
		<stop  offset="0" style="stop-color:#F7DE7B"/>
		<stop  offset="0.0995" style="stop-color:#DBB85B"/>
		<stop  offset="0.1991" style="stop-color:#C59942"/>
		<stop  offset="0.2837" style="stop-color:#B78632"/>
		<stop  offset="0.3424" style="stop-color:#B27F2C"/>
		<stop  offset="0.3673" style="stop-color:#BA8A35"/>
		<stop  offset="0.4474" style="stop-color:#D0A84E"/>
		<stop  offset="0.5318" style="stop-color:#E1C062"/>
		<stop  offset="0.6213" style="stop-color:#EDD170"/>
		<stop  offset="0.7193" style="stop-color:#F5DB78"/>
		<stop  offset="0.8422" style="stop-color:#F7DE7B"/>
		<stop  offset="0.8734" style="stop-color:#F4DA77"/>
		<stop  offset="0.9063" style="stop-color:#EBCD6D"/>
		<stop  offset="0.9399" style="stop-color:#DBB85B"/>
		<stop  offset="0.9739" style="stop-color:#C69B43"/>
		<stop  offset="1" style="stop-color:#B27F2C"/>
	</linearGradient>
	<path class="st2" d="M995.79,568.34h-1.56v-1.42c0.06-8.68-5.03-14.18-13.93-14.3h-17.57v75.91c0.1,4.52,3.85,7.94,8.39,7.94h1.61
		V638h-42.06v-1.52h1.62c4.59,0,8.27-3.49,8.4-8.08v-75.78h-17.58c-8.9,0.13-13.93,5.63-13.93,14.3v1.42h-1.56V544.2
		c2.51,0.97,10.3,2.33,15.98,2.33h56.17c5.7,0,14.04-1.37,16-2.33L995.79,568.34z"/>
	<linearGradient id="SVGID_4_" gradientUnits="userSpaceOnUse" x1="1003.8337" y1="591.1557" x2="1081.3098" y2="591.1557">
		<stop  offset="0" style="stop-color:#F7DE7B"/>
		<stop  offset="0.0995" style="stop-color:#DBB85B"/>
		<stop  offset="0.1991" style="stop-color:#C59942"/>
		<stop  offset="0.2837" style="stop-color:#B78632"/>
		<stop  offset="0.3424" style="stop-color:#B27F2C"/>
		<stop  offset="0.3673" style="stop-color:#BA8A35"/>
		<stop  offset="0.4474" style="stop-color:#D0A84E"/>
		<stop  offset="0.5318" style="stop-color:#E1C062"/>
		<stop  offset="0.6213" style="stop-color:#EDD170"/>
		<stop  offset="0.7193" style="stop-color:#F5DB78"/>
		<stop  offset="0.8422" style="stop-color:#F7DE7B"/>
		<stop  offset="0.8734" style="stop-color:#F4DA77"/>
		<stop  offset="0.9063" style="stop-color:#EBCD6D"/>
		<stop  offset="0.9399" style="stop-color:#DBB85B"/>
		<stop  offset="0.9739" style="stop-color:#C69B43"/>
		<stop  offset="1" style="stop-color:#B27F2C"/>
	</linearGradient>
	<path class="st3" d="M1075.41,637.98h-0.37h-71.21v-1.52h1.82c4.48,0,8.14-3.43,8.24-7.95v-72.37c-0.07-4.56-3.74-7.94-8.24-7.94
		h-1.82v-1.52h53.54c5.71-0.03,13.4-1.38,15.81-2.33v24.28h-1.58v-1.42c0-8.77-5.03-14.27-13.84-14.4h-21.92v36.9h17.31
		c7.15-0.13,11.62-5.22,11.62-12.03v-0.98h1.57v32.21h-1.57v-1.08c0-6.75-4.39-11.8-11.43-12.03h-17.51v36.1h18.32
		c12.87-0.13,21.69-8.4,25.67-21.87h1.47L1075.41,637.98z"/>
	<linearGradient id="SVGID_5_" gradientUnits="userSpaceOnUse" x1="1088.8801" y1="592.333" x2="1166.4243" y2="592.333">
		<stop  offset="0" style="stop-color:#F7DE7B"/>
		<stop  offset="0.0995" style="stop-color:#DBB85B"/>
		<stop  offset="0.1991" style="stop-color:#C59942"/>
		<stop  offset="0.2837" style="stop-color:#B78632"/>
		<stop  offset="0.3424" style="stop-color:#B27F2C"/>
		<stop  offset="0.3673" style="stop-color:#BA8A35"/>
		<stop  offset="0.4474" style="stop-color:#D0A84E"/>
		<stop  offset="0.5318" style="stop-color:#E1C062"/>
		<stop  offset="0.6213" style="stop-color:#EDD170"/>
		<stop  offset="0.7193" style="stop-color:#F5DB78"/>
		<stop  offset="0.8422" style="stop-color:#F7DE7B"/>
		<stop  offset="0.8734" style="stop-color:#F4DA77"/>
		<stop  offset="0.9063" style="stop-color:#EBCD6D"/>
		<stop  offset="0.9399" style="stop-color:#DBB85B"/>
		<stop  offset="0.9739" style="stop-color:#C69B43"/>
		<stop  offset="1" style="stop-color:#B27F2C"/>
	</linearGradient>
	<path class="st4" d="M1160.46,638h-71.58v-1.52h1.83c4.48,0,8.14-3.43,8.24-7.95v-72.24c-0.03-4.59-3.82-8.08-8.35-8.08h-1.72
		v-1.52h42.19v1.52h-1.72c-4.62,0-8.31,3.49-8.44,8.08v75.6h18.33c12.86-0.13,21.63-8.4,25.62-21.87h1.57L1160.46,638z"/>
</g>
<g>
	<linearGradient id="SVGID_6_" gradientUnits="userSpaceOnUse" x1="343.5379" y1="795.9362" x2="582.9878" y2="795.9362">
		<stop  offset="0" style="stop-color:#F7DE7B"/>
		<stop  offset="0.0995" style="stop-color:#DBB85B"/>
		<stop  offset="0.1991" style="stop-color:#C59942"/>
		<stop  offset="0.2837" style="stop-color:#B78632"/>
		<stop  offset="0.3424" style="stop-color:#B27F2C"/>
		<stop  offset="0.3673" style="stop-color:#BA8A35"/>
		<stop  offset="0.4474" style="stop-color:#D0A84E"/>
		<stop  offset="0.5318" style="stop-color:#E1C062"/>
		<stop  offset="0.6213" style="stop-color:#EDD170"/>
		<stop  offset="0.7193" style="stop-color:#F5DB78"/>
		<stop  offset="0.8422" style="stop-color:#F7DE7B"/>
		<stop  offset="0.8734" style="stop-color:#F4DA77"/>
		<stop  offset="0.9063" style="stop-color:#EBCD6D"/>
		<stop  offset="0.9399" style="stop-color:#DBB85B"/>
		<stop  offset="0.9739" style="stop-color:#C69B43"/>
		<stop  offset="1" style="stop-color:#B27F2C"/>
	</linearGradient>
	<path class="st5" d="M582.99,891.6c-11.97,5.99-24.71,8.98-38.22,8.98c-11.97,0-22.87-1.84-32.69-5.53
		c-21.18-7.83-39.22-23.1-54.11-45.82c-3.84-5.53-10.98-16.12-21.41-31.77c-10.44-15.66-17.19-25.63-20.26-29.93
		c-5.37-8.44-9.67-13.04-12.89-13.81v-2.3c0.15,0,0.34,0,0.58,0c0.23,0,0.5,0,0.81,0c0.3,0,0.61,0,0.92,0c0.3,0,0.69,0,1.15,0
		c0.46,0,0.84,0,1.15,0c7.83,0,15.04-1.76,21.64-5.3c9.98-5.52,14.97-15.73,14.97-30.62c0-10.9-3.07-19.3-9.21-25.21
		c-6.14-5.91-13.51-8.86-22.1-8.86h-17.5v134.23c0,3.99,1.46,7.41,4.37,10.25c2.91,2.84,6.37,4.26,10.36,4.26h2.99v2.3h-69.99v-2.3
		h2.99c3.84,0,7.21-1.38,10.13-4.14c2.91-2.76,4.45-6.14,4.6-10.13V708.1c-0.15-3.99-1.65-7.4-4.49-10.25
		c-2.84-2.84-6.25-4.26-10.25-4.26h-2.99v-2.3h78.97c19.8,0,35.15,4.53,46.05,13.58c8.59,7.06,12.89,17.04,12.89,29.93
		c0,12.89-4.18,23.37-12.55,31.43c-8.37,8.06-17.92,12.09-28.66,12.09c-0.92,0-1.92-0.08-2.99-0.23
		c6.29,3.38,11.55,7.14,15.77,11.28c4.22,4.15,7.9,8.06,11.05,11.74c3.14,3.68,5.83,6.95,8.06,9.79c2.22,2.84,5.18,6.6,8.86,11.28
		c3.68,4.68,7.52,9.56,11.51,14.62c3.99,5.06,8.4,10.25,13.24,15.54c4.83,5.29,10.21,10.32,16.12,15.08
		c5.91,4.76,11.93,8.67,18.07,11.74c13.04,6.6,27.4,9.98,43.06,10.13V891.6z"/>
	<linearGradient id="SVGID_7_" gradientUnits="userSpaceOnUse" x1="495.2646" y1="789.9349" x2="723.8923" y2="789.9349">
		<stop  offset="0" style="stop-color:#F7DE7B"/>
		<stop  offset="0.0995" style="stop-color:#DBB85B"/>
		<stop  offset="0.1991" style="stop-color:#C59942"/>
		<stop  offset="0.2837" style="stop-color:#B78632"/>
		<stop  offset="0.3424" style="stop-color:#B27F2C"/>
		<stop  offset="0.3673" style="stop-color:#BA8A35"/>
		<stop  offset="0.4474" style="stop-color:#D0A84E"/>
		<stop  offset="0.5318" style="stop-color:#E1C062"/>
		<stop  offset="0.6213" style="stop-color:#EDD170"/>
		<stop  offset="0.7193" style="stop-color:#F5DB78"/>
		<stop  offset="0.8422" style="stop-color:#F7DE7B"/>
		<stop  offset="0.8734" style="stop-color:#F4DA77"/>
		<stop  offset="0.9063" style="stop-color:#EBCD6D"/>
		<stop  offset="0.9399" style="stop-color:#DBB85B"/>
		<stop  offset="0.9739" style="stop-color:#C69B43"/>
		<stop  offset="1" style="stop-color:#B27F2C"/>
	</linearGradient>
	<path class="st6" d="M723.89,894.59c-16.73,8.44-33.69,9.82-50.88,4.15c-18.27-5.84-34-18.27-47.2-37.3
		c-7.06-10.13-13.13-21.87-18.19-35.23l-7.37-19.57h-54.34l-12.2,29.01c-0.77,2-1.15,3.61-1.15,4.83c0,1.23,0.27,2.57,0.81,4.03
		c0.54,1.46,1.69,2.76,3.45,3.91c1.76,1.15,3.72,1.73,5.87,1.73h1.84v2.3h-49.27v-2.3h2.07c3.53,0,7.02-1.03,10.48-3.11
		c3.45-2.07,6.33-5.18,8.63-9.32l51.34-117.19c-5.99-13.5-12.36-22.79-19.11-27.86c-5.68-4.3-11.09-6.45-16.23-6.45
		c-5.14,0-9.94,0.77-14.39,2.3l-0.46-2.3c11.05-5.68,21.64-8.52,31.77-8.52c12.58,0,23.87,4.92,33.84,14.74
		c9.82,9.67,18.5,23.64,26.02,41.9l33.38,82.43c12.58,31.16,25.48,52.57,38.68,64.24c5.37,4.75,10.9,8.06,16.58,9.9
		c5.68,1.84,10.48,2.76,14.39,2.76c3.91,0,7.71-0.46,11.4-1.38L723.89,894.59z M549.83,796.74h46.97l-16.12-42.59
		c-0.77-2.15-1.84-5.1-3.22-8.86c-1.38-3.76-2.3-6.41-2.76-7.94L549.83,796.74z"/>
	<linearGradient id="SVGID_8_" gradientUnits="userSpaceOnUse" x1="664.0265" y1="774.6384" x2="857.8894" y2="774.6384">
		<stop  offset="0" style="stop-color:#F7DE7B"/>
		<stop  offset="0.0995" style="stop-color:#DBB85B"/>
		<stop  offset="0.1991" style="stop-color:#C59942"/>
		<stop  offset="0.2837" style="stop-color:#B78632"/>
		<stop  offset="0.3424" style="stop-color:#B27F2C"/>
		<stop  offset="0.3673" style="stop-color:#BA8A35"/>
		<stop  offset="0.4474" style="stop-color:#D0A84E"/>
		<stop  offset="0.5318" style="stop-color:#E1C062"/>
		<stop  offset="0.6213" style="stop-color:#EDD170"/>
		<stop  offset="0.7193" style="stop-color:#F5DB78"/>
		<stop  offset="0.8422" style="stop-color:#F7DE7B"/>
		<stop  offset="0.8734" style="stop-color:#F4DA77"/>
		<stop  offset="0.9063" style="stop-color:#EBCD6D"/>
		<stop  offset="0.9399" style="stop-color:#DBB85B"/>
		<stop  offset="0.9739" style="stop-color:#C69B43"/>
		<stop  offset="1" style="stop-color:#B27F2C"/>
	</linearGradient>
	<path class="st7" d="M782.37,850.16c3.99,0,7.44-1.38,10.36-4.14c2.91-2.76,4.45-6.14,4.6-10.13v-58.71h-72.52v59.17
		c0,18.42-4.68,33.07-14.04,43.98c-7.37,8.59-17.96,12.89-31.77,12.89c-4.45,0-9.29-0.54-14.5-1.61l-0.46-2.3
		c11.36-4.76,18.65-11.82,21.87-21.18c2.91-7.98,4.38-18.57,4.38-31.77V707.87c-0.16-3.99-1.65-7.37-4.49-10.13
		c-2.84-2.76-6.26-4.14-10.25-4.14h-2.99v-2.3h69.99v2.3h-2.99c-5.53,0-9.67,2.3-12.43,6.91c-1.38,2.15-2.15,4.61-2.3,7.37v59.4
		h72.52v-55.26c0-17.96,5.6-32.23,16.81-42.82c8.9-8.75,20.11-13.12,33.61-13.12c3.07,0,6.29,0.23,9.67,0.69l0.46,2.3
		c-11.21,3.99-18.5,11.05-21.87,21.18c-2.76,8.29-4.22,18.88-4.37,31.77v123.64c0.15,5.53,2.61,9.67,7.37,12.43
		c2.3,1.38,4.83,2.07,7.6,2.07h2.76v2.3h-69.76v-2.3H782.37z"/>
	<linearGradient id="SVGID_9_" gradientUnits="userSpaceOnUse" x1="850.2891" y1="769.5737" x2="956.6592" y2="769.5737">
		<stop  offset="0" style="stop-color:#F7DE7B"/>
		<stop  offset="0.0995" style="stop-color:#DBB85B"/>
		<stop  offset="0.1991" style="stop-color:#C59942"/>
		<stop  offset="0.2837" style="stop-color:#B78632"/>
		<stop  offset="0.3424" style="stop-color:#B27F2C"/>
		<stop  offset="0.3673" style="stop-color:#BA8A35"/>
		<stop  offset="0.4474" style="stop-color:#D0A84E"/>
		<stop  offset="0.5318" style="stop-color:#E1C062"/>
		<stop  offset="0.6213" style="stop-color:#EDD170"/>
		<stop  offset="0.7193" style="stop-color:#F5DB78"/>
		<stop  offset="0.8422" style="stop-color:#F7DE7B"/>
		<stop  offset="0.8734" style="stop-color:#F4DA77"/>
		<stop  offset="0.9063" style="stop-color:#EBCD6D"/>
		<stop  offset="0.9399" style="stop-color:#DBB85B"/>
		<stop  offset="0.9739" style="stop-color:#C69B43"/>
		<stop  offset="1" style="stop-color:#B27F2C"/>
	</linearGradient>
	<path class="st8" d="M953.21,850.16h2.99v2.3h-69.99v-2.3h2.99c3.99,0,7.4-1.42,10.25-4.26c2.84-2.84,4.34-6.25,4.49-10.25V700.73
		l-21.87,0.92c-14.43,0.61-21.64,5.99-21.64,16.12c0,4.14,1.42,7.64,4.26,10.48c2.84,2.84,6.79,4.26,11.86,4.26
		c0.46,0,0.92,0,1.38,0v1.38c-3.07,1.08-5.68,1.61-7.83,1.61c-6.91,0-12.2-2.45-15.89-7.37c-2.61-3.37-3.91-7.21-3.91-11.51
		c0-6.75,2.65-12.32,7.94-16.69c5.3-4.37,13.47-6.94,24.52-7.71c1.99-0.15,8.44-0.46,19.34-0.92c24.87-0.92,42.9-2.45,54.11-4.6
		l0.46,2.3c-6.6,1.08-11.25,3.3-13.93,6.68c-2.69,3.38-4.11,8.37-4.26,14.97v125.02c0.15,3.99,1.65,7.41,4.49,10.25
		C945.8,848.74,949.21,850.16,953.21,850.16z"/>
	<linearGradient id="SVGID_10_" gradientUnits="userSpaceOnUse" x1="1012.8379" y1="769.5737" x2="1119.2065" y2="769.5737">
		<stop  offset="0" style="stop-color:#F7DE7B"/>
		<stop  offset="0.0995" style="stop-color:#DBB85B"/>
		<stop  offset="0.1991" style="stop-color:#C59942"/>
		<stop  offset="0.2837" style="stop-color:#B78632"/>
		<stop  offset="0.3424" style="stop-color:#B27F2C"/>
		<stop  offset="0.3673" style="stop-color:#BA8A35"/>
		<stop  offset="0.4474" style="stop-color:#D0A84E"/>
		<stop  offset="0.5318" style="stop-color:#E1C062"/>
		<stop  offset="0.6213" style="stop-color:#EDD170"/>
		<stop  offset="0.7193" style="stop-color:#F5DB78"/>
		<stop  offset="0.8422" style="stop-color:#F7DE7B"/>
		<stop  offset="0.8734" style="stop-color:#F4DA77"/>
		<stop  offset="0.9063" style="stop-color:#EBCD6D"/>
		<stop  offset="0.9399" style="stop-color:#DBB85B"/>
		<stop  offset="0.9739" style="stop-color:#C69B43"/>
		<stop  offset="1" style="stop-color:#B27F2C"/>
	</linearGradient>
	<path class="st9" d="M1115.75,850.16h2.99v2.3h-69.99v-2.3h2.99c3.99,0,7.4-1.42,10.25-4.26c2.84-2.84,4.34-6.25,4.49-10.25V700.73
		l-21.87,0.92c-14.43,0.61-21.64,5.99-21.64,16.12c0,4.14,1.42,7.64,4.26,10.48c2.84,2.84,6.79,4.26,11.86,4.26
		c0.46,0,0.92,0,1.38,0v1.38c-3.07,1.08-5.68,1.61-7.83,1.61c-6.91,0-12.2-2.45-15.89-7.37c-2.61-3.37-3.91-7.21-3.91-11.51
		c0-6.75,2.65-12.32,7.94-16.69c5.3-4.37,13.47-6.94,24.52-7.71c1.99-0.15,8.44-0.46,19.34-0.92c24.87-0.92,42.9-2.45,54.11-4.6
		l0.46,2.3c-6.6,1.08-11.25,3.3-13.93,6.68c-2.69,3.38-4.11,8.37-4.26,14.97v125.02c0.15,3.99,1.65,7.41,4.49,10.25
		C1108.35,848.74,1111.76,850.16,1115.75,850.16z"/>
	<linearGradient id="SVGID_11_" gradientUnits="userSpaceOnUse" x1="1076.8429" y1="775.4442" x2="1380.989" y2="775.4442">
		<stop  offset="0" style="stop-color:#F7DE7B"/>
		<stop  offset="0.0995" style="stop-color:#DBB85B"/>
		<stop  offset="0.1991" style="stop-color:#C59942"/>
		<stop  offset="0.2837" style="stop-color:#B78632"/>
		<stop  offset="0.3424" style="stop-color:#B27F2C"/>
		<stop  offset="0.3673" style="stop-color:#BA8A35"/>
		<stop  offset="0.4474" style="stop-color:#D0A84E"/>
		<stop  offset="0.5318" style="stop-color:#E1C062"/>
		<stop  offset="0.6213" style="stop-color:#EDD170"/>
		<stop  offset="0.7193" style="stop-color:#F5DB78"/>
		<stop  offset="0.8422" style="stop-color:#F7DE7B"/>
		<stop  offset="0.8734" style="stop-color:#F4DA77"/>
		<stop  offset="0.9063" style="stop-color:#EBCD6D"/>
		<stop  offset="0.9399" style="stop-color:#DBB85B"/>
		<stop  offset="0.9739" style="stop-color:#C69B43"/>
		<stop  offset="1" style="stop-color:#B27F2C"/>
	</linearGradient>
	<path class="st10" d="M1341.04,876.52c2.53,1.46,5.41,2.84,8.63,4.14c3.22,1.3,6.33,2.22,9.32,2.76c2.99,0.54,6.29,0.81,9.9,0.81
		c3.6,0,7.33-0.46,11.17-1.38l0.92,2.3c-8.6,4.15-17.27,6.22-26.02,6.22c-20.11,0-40.6-11.13-61.47-33.38l-109.13-115.81v94.17
		c0,3.84,1.38,7.1,4.15,9.78c2.76,2.69,6.06,4.03,9.9,4.03h4.37v2.3h-69.76v-2.3h4.14c3.99,0,7.37-1.34,10.13-4.03
		c2.76-2.68,4.14-6.02,4.14-10.01V706.95c-7.52-8.59-13.2-14.62-17.04-18.07c-3.84-3.45-7.25-6.33-10.25-8.63
		c-2.99-2.3-5.87-4.22-8.64-5.76c-6.45-3.68-11.63-5.83-15.54-6.45c-3.91-0.61-7.6-0.92-11.05-0.92s-7.17,0.69-11.17,2.07l-0.92-2.3
		c8.44-4.91,17.12-7.37,26.02-7.37c19.34,0,39.83,11.51,61.47,34.54l102.92,109.36v-95.78c-0.15-3.99-1.61-7.33-4.37-10.01
		c-2.76-2.68-6.07-4.03-9.9-4.03h-4.15v-2.3h69.76v2.3h-4.37c-3.84,0-7.14,1.35-9.9,4.03c-2.76,2.69-4.22,5.95-4.38,9.78v131.01
		l3.68,3.68c0.92,0.92,2.34,2.5,4.26,4.72c1.92,2.23,3.64,4.14,5.18,5.76c1.53,1.61,3.49,3.65,5.87,6.1c2.38,2.45,4.6,4.6,6.68,6.45
		s4.53,3.84,7.37,5.99C1335.82,873.26,1338.51,875.06,1341.04,876.52z"/>
	<linearGradient id="SVGID_12_" gradientUnits="userSpaceOnUse" x1="1272.3159" y1="775.4442" x2="1576.4622" y2="775.4442">
		<stop  offset="0" style="stop-color:#F7DE7B"/>
		<stop  offset="0.0995" style="stop-color:#DBB85B"/>
		<stop  offset="0.1991" style="stop-color:#C59942"/>
		<stop  offset="0.2837" style="stop-color:#B78632"/>
		<stop  offset="0.3424" style="stop-color:#B27F2C"/>
		<stop  offset="0.3673" style="stop-color:#BA8A35"/>
		<stop  offset="0.4474" style="stop-color:#D0A84E"/>
		<stop  offset="0.5318" style="stop-color:#E1C062"/>
		<stop  offset="0.6213" style="stop-color:#EDD170"/>
		<stop  offset="0.7193" style="stop-color:#F5DB78"/>
		<stop  offset="0.8422" style="stop-color:#F7DE7B"/>
		<stop  offset="0.8734" style="stop-color:#F4DA77"/>
		<stop  offset="0.9063" style="stop-color:#EBCD6D"/>
		<stop  offset="0.9399" style="stop-color:#DBB85B"/>
		<stop  offset="0.9739" style="stop-color:#C69B43"/>
		<stop  offset="1" style="stop-color:#B27F2C"/>
	</linearGradient>
	<path class="st11" d="M1536.52,876.52c2.53,1.46,5.41,2.84,8.63,4.14c3.22,1.3,6.33,2.22,9.32,2.76c2.99,0.54,6.29,0.81,9.9,0.81
		c3.6,0,7.33-0.46,11.17-1.38l0.92,2.3c-8.6,4.15-17.27,6.22-26.02,6.22c-20.11,0-40.6-11.13-61.47-33.38l-109.13-115.81v94.17
		c0,3.84,1.38,7.1,4.15,9.78c2.76,2.69,6.06,4.03,9.9,4.03h4.37v2.3h-69.76v-2.3h4.14c3.99,0,7.37-1.34,10.13-4.03
		c2.76-2.68,4.14-6.02,4.14-10.01V706.95c-7.52-8.59-13.2-14.62-17.04-18.07c-3.84-3.45-7.25-6.33-10.25-8.63
		c-2.99-2.3-5.87-4.22-8.64-5.76c-6.45-3.68-11.63-5.83-15.54-6.45c-3.91-0.61-7.6-0.92-11.05-0.92s-7.17,0.69-11.17,2.07l-0.92-2.3
		c8.44-4.91,17.12-7.37,26.02-7.37c19.34,0,39.83,11.51,61.47,34.54l102.92,109.36v-95.78c-0.15-3.99-1.61-7.33-4.37-10.01
		c-2.76-2.68-6.07-4.03-9.9-4.03h-4.15v-2.3h69.76v2.3h-4.37c-3.84,0-7.14,1.35-9.9,4.03c-2.76,2.69-4.22,5.95-4.38,9.78v131.01
		l3.68,3.68c0.92,0.92,2.34,2.5,4.26,4.72c1.92,2.23,3.64,4.14,5.18,5.76c1.53,1.61,3.49,3.65,5.87,6.1c2.38,2.45,4.6,4.6,6.68,6.45
		c2.07,1.84,4.53,3.84,7.37,5.99C1531.3,873.26,1533.98,875.06,1536.52,876.52z"/>
</g>
<linearGradient id="SVGID_13_" gradientUnits="userSpaceOnUse" x1="835.8885" y1="293.2144" x2="1012.1964" y2="293.2144">
	<stop  offset="0" style="stop-color:#F7DE7B"/>
	<stop  offset="0.0995" style="stop-color:#DBB85B"/>
	<stop  offset="0.1991" style="stop-color:#C59942"/>
	<stop  offset="0.2837" style="stop-color:#B78632"/>
	<stop  offset="0.3424" style="stop-color:#B27F2C"/>
	<stop  offset="0.3673" style="stop-color:#BA8A35"/>
	<stop  offset="0.4474" style="stop-color:#D0A84E"/>
	<stop  offset="0.5318" style="stop-color:#E1C062"/>
	<stop  offset="0.6213" style="stop-color:#EDD170"/>
	<stop  offset="0.7193" style="stop-color:#F5DB78"/>
	<stop  offset="0.8422" style="stop-color:#F7DE7B"/>
	<stop  offset="0.8734" style="stop-color:#F4DA77"/>
	<stop  offset="0.9063" style="stop-color:#EBCD6D"/>
	<stop  offset="0.9399" style="stop-color:#DBB85B"/>
	<stop  offset="0.9739" style="stop-color:#C69B43"/>
	<stop  offset="1" style="stop-color:#B27F2C"/>
</linearGradient>
<path class="st12" d="M966.32,390.35c0.33,2.54,0.61,4.67,0.92,7.07c-9.11-0.34-15.71-4.83-21.59-11.95
	c-0.14,2.29-0.22,3.72-0.34,5.66c-2.24-1.11-4.25-2-6.17-3.07c-17.41-9.65-28.88-24.63-38.02-41.88
	c-6.54-12.36-13.64-24.43-20.65-36.54c-1.42-2.46-3.51-4.55-5.36-6.75c-4.95-5.86-10.93-9.21-18.96-8.69
	c-6.45,0.41-12.95,0.08-19.42,0.08c-0.28-0.45-0.55-0.9-0.83-1.35c1.56-1.87,2.76-4.49,4.76-5.45c4.22-2.02,8.86-3.18,13.33-4.67
	c0.82-0.27,1.88-0.16,2.49-0.65c13.43-10.8,27.4-11.45,41.76-1.87c0.41,0.27,0.84,0.53,1.23,0.77
	c19.54-12.96,29.21-37.77,12.2-59.55c-7.29-9.34-16.92-15.47-27.73-19.9c-13.95-5.72-28.5-9.33-43.28-12.09
	c-1.2-0.22-2.38-0.53-3.53-1.13c28-2.86,55.97-5.32,83.57,2.67c4.17,1.21,8.25,2.98,12.08,5.04c9.32,5,13.67,10.63,17.08,21.6
	c1.24-2.32,2.25-4.22,3.36-6.31c9.36,9.68,12.04,20.69,7.67,34.02c2.53-1.52,4.36-2.62,6.45-3.88c2.82,12.45,0.15,23.22-8.64,32.87
	c2.5-0.31,4.31-0.53,6.69-0.83c-6.52,20.11-18.52,34.77-37.88,43.76c25.48,30.4,48.19,63.07,84.69,83.21
	C995.49,401.4,980.23,400.13,966.32,390.35z"/>
<linearGradient id="SVGID_14_" gradientUnits="userSpaceOnUse" x1="687.8281" y1="291.0993" x2="1160.2568" y2="291.0993">
	<stop  offset="0" style="stop-color:#F7DE7B"/>
	<stop  offset="0.0995" style="stop-color:#DBB85B"/>
	<stop  offset="0.1991" style="stop-color:#C59942"/>
	<stop  offset="0.2837" style="stop-color:#B78632"/>
	<stop  offset="0.3424" style="stop-color:#B27F2C"/>
	<stop  offset="0.3673" style="stop-color:#BA8A35"/>
	<stop  offset="0.4474" style="stop-color:#D0A84E"/>
	<stop  offset="0.5318" style="stop-color:#E1C062"/>
	<stop  offset="0.6213" style="stop-color:#EDD170"/>
	<stop  offset="0.7193" style="stop-color:#F5DB78"/>
	<stop  offset="0.8422" style="stop-color:#F7DE7B"/>
	<stop  offset="0.8734" style="stop-color:#F4DA77"/>
	<stop  offset="0.9063" style="stop-color:#EBCD6D"/>
	<stop  offset="0.9399" style="stop-color:#DBB85B"/>
	<stop  offset="0.9739" style="stop-color:#C69B43"/>
	<stop  offset="1" style="stop-color:#B27F2C"/>
</linearGradient>
<path class="st13" d="M875.39,141.39c9.33-3.03,16.99-8.83,22.33-16.22c0,0-23.08,3.75-32.36-15.59c4.36-8.81,4.69-19.47-0.08-28.93
	c-3.21-6.37-8.23-11.23-14.15-14.23c-3.04,5.89-4.32,12.76-3.24,19.81c1.62,10.53,8.18,19.08,16.94,23.7
	c3.71,20.99-17.05,31.46-17.05,31.46C856.46,144.23,866.06,144.42,875.39,141.39z M808.94,100.88c2.48-1.81,3.04-5.28,1.23-7.77
	c-1.81-2.48-5.28-3.04-7.77-1.23c-2.48,1.81-3.04,5.28-1.23,7.77C802.98,102.14,806.45,102.69,808.94,100.88z M778.7,122.85
	c2.49-1.81,3.04-5.28,1.23-7.77c-1.81-2.49-5.28-3.04-7.77-1.23c-2.49,1.81-3.04,5.28-1.23,7.77
	C772.74,124.11,776.21,124.66,778.7,122.85z M837.8,86.18c2.92-0.95,4.52-4.09,3.57-7.01c-0.95-2.92-4.09-4.52-7.01-3.57
	c-2.92,0.95-4.52,4.09-3.57,7.01C831.74,85.53,834.88,87.12,837.8,86.18z M840.78,138.38c2.25,1.18,4.57,2.23,6.99,3.02
	c0-0.01,0-0.01,0-0.02c0.01,0,0.01,0.01,0.02,0.01c2.09-6.41,2.69-13.24,1.77-19.96c-0.96-7.11-3.62-14.1-8.13-20.31
	c-5.8-7.99-13.75-13.51-22.49-16.3c0,0,0,0,0,0c0,0,0,0,0,0c-2.89,8.72-3.09,18.39-0.04,27.78
	C822.66,124.2,830.76,133.15,840.78,138.38z M905.35,69.56c3.07,0,5.56-2.49,5.56-5.56c0-3.07-2.49-5.56-5.56-5.56
	c-3.07,0-5.56,2.49-5.56,5.56C899.79,67.07,902.28,69.56,905.35,69.56z M696.94,277.98c3.07,0,5.56-2.49,5.56-5.56
	s-2.49-5.56-5.56-5.56c-3.07,0-5.56,2.49-5.56,5.56S693.86,277.98,696.94,277.98z M873.35,74.62c2.92-0.95,4.52-4.09,3.57-7.01
	c-0.95-2.92-4.09-4.52-7.01-3.57c-2.92,0.95-4.52,4.09-3.57,7.01C867.29,73.98,870.43,75.57,873.35,74.62z M942.73,69.56
	c3.07,0,5.56-2.49,5.56-5.56c0-3.07-2.49-5.56-5.56-5.56c-3.07,0-5.56,2.49-5.56,5.56C937.17,67.07,939.66,69.56,942.73,69.56z
	 M897.76,125.16c0,0,0.01-0.01,0.01-0.01c0.01,0,0.01,0.01,0.02,0.01c3.93-5.4,6.61-11.64,7.83-18.24
	c1.33-7.12,0.96-14.65-1.44-22.03c-3.05-9.39-8.9-17.1-16.36-22.45c0,0,0,0,0,0c0,0,0,0,0,0c-5.44,7.4-8.62,16.53-8.62,26.41
	c0,12.2,4.94,23.22,12.85,31.28C893.82,121.94,895.7,123.66,897.76,125.16z M847.74,141.42c0,0-20.79,10.7-35.6-4.83
	c1.43-9.72-1.56-19.97-9.01-27.49c-5.02-5.06-11.3-8.14-17.85-9.16c-1.07,6.54-0.17,13.47,3.04,19.84
	c4.79,9.51,13.67,15.62,23.43,17.31c10.01,18.82-6.49,35.19-6.49,35.19c9.12,0.02,18.32-2.77,26.25-8.53
	C839.45,157.98,844.94,150.1,847.74,141.42z M712.11,208.44c2.92,0.95,6.06-0.65,7.01-3.57c0.95-2.92-0.65-6.06-3.57-7.01
	c-2.92-0.95-6.06,0.65-7.01,3.57C707.59,204.35,709.19,207.49,712.11,208.44z M734.06,208.49c9.85,7.16,21.65,9.64,32.8,8
	c2.53-0.37,5.04-0.88,7.48-1.67c0-0.01,0-0.01-0.01-0.02c0.01,0,0.01,0,0.02-0.01c-2.06-6.35-5.55-12.18-10.17-17.05
	c-4.98-5.25-11.27-9.4-18.64-11.79c-9.39-3.05-19.06-2.85-27.78,0.04c0,0,0,0,0,0c0,0,0,0,0,0
	C720.55,194.75,726.07,202.69,734.06,208.49z M774.33,242.46c3.03-9.33,2.84-18.94,0-27.6c0,0-10.53,20.88-31.64,17.02
	c-4.56-8.71-13-15.24-23.45-16.94c-7.04-1.15-13.92,0.06-19.83,3.08c2.97,5.92,7.78,11,14.12,14.27c9.47,4.88,20.25,4.6,29.13,0.23
	c19.16,9.34,15.43,32.28,15.43,32.28C765.5,259.45,771.3,251.79,774.33,242.46z M717.83,271.25c11.78,3.83,24.01,2.5,34.21-2.73
	c2.11-1.07,4.14-2.3,6.05-3.7c0,0-0.01-0.01-0.01-0.01c0.01,0,0.01-0.01,0.02-0.01c-3.91-5.4-9.02-9.85-14.91-13.05
	c-6.36-3.47-13.64-5.47-21.41-5.47c-9.87,0-19.01,3.18-26.41,8.62c0,0,0,0,0,0c0,0,0,0,0,0
	C700.73,262.35,708.44,268.2,717.83,271.25z M700.56,243.99c2.92,0.95,6.06-0.65,7.01-3.57c0.95-2.92-0.65-6.06-3.57-7.01
	c-2.92-0.95-6.06,0.65-7.01,3.57C696.04,239.9,697.63,243.04,700.56,243.99z M797.59,171.57c2.53,0.43,5.08,0.73,7.65,0.72
	c0-0.01,0-0.01,0-0.02c0.01,0,0.01,0,0.02,0c0-6.66-1.51-13.26-4.38-19.3c-3.11-6.56-7.82-12.46-14.11-17.03
	c-7.99-5.8-17.25-8.6-26.43-8.55v0c0,0,0,0,0,0c-0.05,9.18,2.75,18.44,8.55,26.43C776.04,163.67,786.48,169.68,797.59,171.57z
	 M796.69,198.57c5.77-7.94,8.56-17.13,8.53-26.25c0,0-16.46,16.6-35.35,6.41c-1.65-9.69-7.65-18.51-17.07-23.36
	c-6.34-3.26-13.26-4.25-19.81-3.2c1,6.55,4.01,12.86,9.02,17.93c7.5,7.57,17.83,10.63,27.64,9.22c15.34,14.8,4.7,35.47,4.7,35.47
	C783.04,212.01,790.92,206.51,796.69,198.57z M748.02,146.99c2.49,1.81,5.96,1.25,7.77-1.23c1.81-2.49,1.25-5.96-1.23-7.77
	c-2.49-1.81-5.96-1.25-7.77,1.23C744.99,141.71,745.54,145.19,748.02,146.99z M726.05,177.23c2.49,1.81,5.96,1.25,7.77-1.23
	c1.81-2.48,1.25-5.96-1.23-7.77c-2.49-1.81-5.96-1.25-7.77,1.23C723.02,171.95,723.57,175.43,726.05,177.23z M950.29,125.15
	c0,0-23.11-3.56-25.96-24.83c6.87-7.03,10.48-17.07,8.87-27.54c-1.09-7.05-4.36-13.22-9.06-17.91c-4.71,4.66-8.05,10.8-9.2,17.84
	c-1.72,10.51,1.88,20.68,8.78,27.78c-2.96,21.11-25.93,24.65-25.93,24.65c7.37,5.38,16.44,8.53,26.25,8.53
	C933.85,133.68,942.93,130.53,950.29,125.15z M946.64,119.12c1.07,2.1,2.29,4.12,3.68,6.03c0,0,0.01-0.01,0.01-0.01
	c0,0.01,0.01,0.01,0.01,0.02c5.44-3.95,9.93-9.11,13.14-15.06c3.42-6.33,5.39-13.56,5.39-21.26c0-9.87-3.18-19.01-8.62-26.41
	c0,0,0,0,0,0c0,0,0,0,0,0c-7.46,5.35-13.31,13.06-16.36,22.45C940.07,96.67,941.4,108.91,946.64,119.12z M1073.75,242.45
	c3.03,9.33,8.83,16.99,16.22,22.33c0,0-3.75-23.08,15.59-32.36c8.81,4.36,19.47,4.69,28.93-0.08c6.37-3.21,11.23-8.23,14.23-14.15
	c-5.89-3.04-12.76-4.32-19.81-3.24c-10.53,1.62-19.08,8.18-23.7,16.94c-20.99,3.71-31.46-17.05-31.46-17.05
	C1070.91,223.51,1070.72,233.12,1073.75,242.45z M1128.97,204.86c0.95,2.92,4.09,4.52,7.01,3.57c2.92-0.95,4.52-4.09,3.57-7.01
	c-0.95-2.92-4.09-4.52-7.01-3.57C1129.62,198.8,1128.02,201.94,1128.97,204.86z M1114.26,176c1.81,2.49,5.28,3.04,7.77,1.23
	c2.49-1.81,3.04-5.28,1.23-7.77c-1.81-2.48-5.28-3.04-7.77-1.23C1113,170.03,1112.45,173.51,1114.26,176z M1145.59,272.41
	c0,3.07,2.49,5.56,5.56,5.56s5.56-2.49,5.56-5.56c0-3.07-2.49-5.56-5.56-5.56S1145.59,269.33,1145.59,272.41z M1100.06,146.99
	c2.49-1.81,3.04-5.28,1.23-7.77c-1.81-2.48-5.28-3.04-7.77-1.23c-2.48,1.81-3.04,5.28-1.23,7.77
	C1094.09,148.24,1097.57,148.79,1100.06,146.99z M1089.99,317.35c0,0,3.56-23.11,24.83-25.96c7.03,6.87,17.07,10.48,27.54,8.87
	c7.05-1.09,13.22-4.36,17.91-9.06c-4.66-4.71-10.8-8.05-17.84-9.2c-10.51-1.72-20.68,1.88-27.78,8.78
	c-21.11-2.96-24.65-25.93-24.65-25.93c-5.38,7.37-8.53,16.44-8.53,26.25C1081.46,300.91,1084.61,309.98,1089.99,317.35z
	 M1144.09,233.4c-2.92,0.95-4.52,4.09-3.57,7.01c0.95,2.92,4.09,4.52,7.01,3.57c2.92-0.95,4.52-4.09,3.57-7.01
	C1150.15,234.05,1147.01,232.45,1144.09,233.4z M1126.3,246.26c-12.17,0-23.18,4.92-31.24,12.8c-1.83,1.79-3.57,3.68-5.07,5.75
	c0,0,0.01,0.01,0.01,0.01c0,0.01-0.01,0.01-0.01,0.02c5.39,3.92,11.61,6.6,18.19,7.82c7.13,1.34,14.68,0.97,22.07-1.43
	c9.39-3.05,17.1-8.9,22.45-16.36c0,0,0,0,0,0c0,0,0,0,0,0C1145.31,249.44,1136.17,246.26,1126.3,246.26z M1102.54,185.95
	c-11.58,3.76-20.53,11.85-25.76,21.85c-1.19,2.26-2.25,4.59-3.04,7.02c0.01,0,0.01,0,0.02,0c0,0.01-0.01,0.01-0.01,0.02
	c6.34,2.06,13.09,2.66,19.74,1.79c7.19-0.93,14.25-3.59,20.53-8.15c7.99-5.8,13.51-13.75,16.3-22.49c0,0,0,0,0,0c0,0,0,0,0,0
	C1121.6,183.1,1111.93,182.9,1102.54,185.95z M974.72,74.62c2.92,0.95,6.06-0.65,7.01-3.57c0.95-2.92-0.65-6.06-3.57-7.01
	c-2.92-0.95-6.06,0.65-7.01,3.57C970.2,70.53,971.8,73.67,974.72,74.62z M1006.65,101.12c-7.16,9.85-9.64,21.65-8,32.8
	c0.37,2.53,0.88,5.04,1.67,7.48c0.01,0,0.01,0,0.02-0.01c0,0.01,0,0.01,0.01,0.02c6.31-2.05,12.09-5.51,16.94-10.08
	c5.3-4.99,9.49-11.32,11.9-18.73c3.05-9.39,2.85-19.06-0.04-27.78c0,0,0,0,0,0c0,0,0,0,0,0
	C1020.39,87.6,1012.45,93.13,1006.65,101.12z M1073.72,214.8c0,0-10.7-20.79,4.83-35.6c9.72,1.43,19.97-1.56,27.49-9.01
	c5.06-5.02,8.13-11.3,9.16-17.85c-6.54-1.07-13.47-0.17-19.84,3.04c-9.51,4.79-15.62,13.67-17.31,23.43
	c-18.82,10.01-35.19-6.49-35.19-6.49c-0.02,9.12,2.77,18.32,8.53,26.25C1057.16,206.51,1065.04,212,1073.72,214.8z M972.68,141.38
	c9.33,3.03,18.94,2.84,27.6,0c0,0-20.88-10.53-17.02-31.64c8.71-4.56,15.24-13,16.94-23.45c1.15-7.04-0.06-13.92-3.08-19.83
	c-5.92,2.97-11,7.78-14.27,14.12c-4.88,9.47-4.6,20.25-0.23,29.13c-9.34,19.16-32.28,15.43-32.28,15.43
	C955.69,132.55,963.35,138.35,972.68,141.38z M1010.27,86.17c2.92,0.95,6.06-0.65,7.01-3.57c0.95-2.92-0.65-6.06-3.57-7.01
	c-2.92-0.95-6.06,0.65-7.01,3.57C1005.75,82.09,1007.35,85.22,1010.27,86.17z M1069.38,122.85c2.48,1.81,5.96,1.25,7.77-1.23
	c1.81-2.49,1.25-5.96-1.23-7.77c-2.48-1.81-5.96-1.25-7.77,1.23C1066.34,117.57,1066.89,121.04,1069.38,122.85z M1061.31,135.94
	c-9.86,7.16-15.87,17.62-17.75,28.75c-0.43,2.51-0.72,5.05-0.72,7.61c0.01,0,0.01,0,0.02,0c0,0.01,0,0.01,0,0.02
	c6.66,0,13.25-1.51,19.29-4.38c6.56-3.11,12.47-7.82,17.04-14.11c5.8-7.99,8.6-17.25,8.55-26.43h0c0,0,0,0,0,0
	C1078.56,127.34,1069.3,130.14,1061.31,135.94z M1016.57,163.74c7.94,5.77,17.13,8.56,26.25,8.53c0,0-16.6-16.46-6.41-35.35
	c9.69-1.65,18.51-7.65,23.36-17.07c3.26-6.34,4.24-13.26,3.2-19.81c-6.55,1-12.86,4.01-17.93,9.02c-7.57,7.5-10.63,17.83-9.22,27.64
	c-14.8,15.34-35.47,4.7-35.47,4.7C1003.14,150.09,1008.63,157.98,1016.57,163.74z M1039.14,100.88c2.48,1.81,5.96,1.26,7.77-1.23
	c1.81-2.48,1.25-5.96-1.23-7.77c-2.48-1.81-5.96-1.25-7.77,1.23C1036.1,95.59,1036.65,99.07,1039.14,100.88z M950.33,457.04
	c0,0-0.01,0.01-0.01,0.01c-0.01,0-0.01-0.01-0.02-0.01c-3.93,5.39-6.6,11.63-7.83,18.22c-1.33,7.12-0.96,14.66,1.43,22.04
	c3.05,9.39,8.9,17.1,16.36,22.45c0,0,0,0,0,0c0,0,0,0,0,0c5.44-7.4,8.62-16.54,8.62-26.41c0-12.17-4.92-23.18-12.8-31.24
	C954.29,460.28,952.4,458.55,950.33,457.04z M1007.34,443.84c-2.26-1.19-4.59-2.25-7.02-3.04c0,0.01,0,0.01,0,0.02
	c-0.01,0-0.01-0.01-0.02-0.01c-2.07,6.34-2.66,13.1-1.79,19.75c0.94,7.18,3.59,14.24,8.15,20.52c5.8,7.99,13.75,13.51,22.49,16.3
	c0,0,0,0,0,0l0,0c2.89-8.72,3.09-18.39,0.04-27.78C1025.42,458.01,1017.34,449.06,1007.34,443.84z M1069.39,459.34
	c-2.48,1.81-3.04,5.28-1.23,7.77c1.81,2.49,5.28,3.04,7.77,1.23c2.49-1.81,3.04-5.28,1.23-7.77
	C1075.35,458.09,1071.87,457.54,1069.39,459.34z M942.74,512.64c-3.07,0-5.56,2.49-5.56,5.56c0,3.07,2.49,5.56,5.56,5.56
	c3.07,0,5.56-2.49,5.56-5.56C948.3,515.13,945.81,512.64,942.74,512.64z M1000.35,440.78c0,0,20.79-10.7,35.6,4.83
	c-1.43,9.72,1.56,19.97,9.01,27.49c5.02,5.06,11.3,8.14,17.85,9.16c1.07-6.54,0.17-13.47-3.04-19.84
	c-4.79-9.51-13.67-15.62-23.43-17.31c-10.01-18.82,6.49-35.19,6.49-35.19c-9.12-0.02-18.31,2.77-26.25,8.53
	C1008.64,424.22,1003.14,432.1,1000.35,440.78z M972.69,440.81c-9.33,3.03-16.99,8.83-22.33,16.22c0,0,23.08-3.75,32.36,15.59
	c-4.36,8.81-4.69,19.47,0.08,28.93c3.21,6.37,8.23,11.23,14.15,14.23c3.04-5.89,4.32-12.76,3.24-19.81
	c-1.62-10.53-8.18-19.08-16.94-23.7c-3.71-20.99,17.05-31.46,17.05-31.46C991.63,437.97,982.02,437.78,972.69,440.81z
	 M1050.46,410.62c-2.52-0.43-5.06-0.72-7.61-0.72c0,0.01,0,0.01,0,0.02c-0.01,0-0.02,0-0.02,0c0,6.64,1.5,13.22,4.36,19.26
	c3.11,6.57,7.83,12.5,14.13,17.08c7.99,5.8,17.25,8.6,26.43,8.55v0c0,0,0,0,0,0c0.05-9.18-2.75-18.44-8.55-26.43
	C1072.04,418.51,1061.58,412.5,1050.46,410.62z M974.73,507.57c-2.92,0.95-4.52,4.09-3.57,7.01c0.95,2.92,4.09,4.52,7.01,3.57
	c2.92-0.95,4.52-4.09,3.57-7.01C980.79,508.22,977.65,506.62,974.73,507.57z M897.79,457.04c0,0,23.11,3.56,25.96,24.83
	c-6.87,7.03-10.48,17.07-8.87,27.54c1.09,7.05,4.36,13.22,9.06,17.91c4.71-4.66,8.05-10.8,9.2-17.84
	c1.72-10.51-1.88-20.68-8.78-27.78c2.96-21.11,25.93-24.65,25.93-24.65c-7.37-5.38-16.44-8.53-26.25-8.53
	C914.24,448.52,905.16,451.66,897.79,457.04z M1010.28,496.02c-2.92,0.95-4.52,4.09-3.57,7.01c0.95,2.92,4.09,4.52,7.01,3.57
	c2.92-0.95,4.52-4.09,3.57-7.01C1016.34,496.67,1013.2,495.07,1010.28,496.02z M1039.15,481.31c-2.49,1.81-3.04,5.28-1.23,7.77
	c1.81,2.49,5.28,3.04,7.77,1.23c2.48-1.81,3.04-5.28,1.23-7.77C1045.11,480.06,1041.63,479.51,1039.15,481.31z M1130.25,310.95
	c-11.79-3.83-24.03-2.49-34.25,2.75c-2.1,1.07-4.11,2.29-6.02,3.68c0,0,0.01,0.01,0.01,0.01c-0.01,0-0.01,0.01-0.02,0.01
	c3.95,5.45,9.12,9.94,15.08,13.15c6.32,3.41,13.55,5.37,21.24,5.37c9.87,0,19.01-3.18,26.41-8.62c0,0,0,0,0,0c0,0,0,0,0,0
	C1147.35,319.85,1139.64,314,1130.25,310.95z M1073.76,339.74c-3.03,9.33-2.84,18.94,0,27.6c0,0,10.53-20.88,31.64-17.02
	c4.56,8.71,13,15.24,23.45,16.94c7.04,1.15,13.92-0.06,19.83-3.08c-2.97-5.92-7.78-11-14.12-14.27c-9.47-4.88-20.25-4.6-29.13-0.23
	c-19.16-9.34-15.43-32.28-15.43-32.28C1082.59,322.75,1076.79,330.41,1073.76,339.74z M1151.15,304.22c-3.07,0-5.56,2.49-5.56,5.56
	c0,3.07,2.49,5.56,5.56,5.56s5.56-2.49,5.56-5.56C1156.71,306.71,1154.22,304.22,1151.15,304.22z M1147.53,338.21
	c-2.92-0.95-6.06,0.65-7.01,3.57c-0.95,2.92,0.65,6.06,3.57,7.01c2.92,0.95,6.06-0.65,7.01-3.57
	C1152.05,342.3,1150.45,339.16,1147.53,338.21z M1114.03,373.7c-9.86-7.17-21.68-9.65-32.85-8c-2.52,0.37-5.01,0.88-7.43,1.67
	c0,0.01,0,0.01,0.01,0.02c-0.01,0-0.01,0-0.02,0.01c2.05,6.32,5.52,12.11,10.1,16.96c4.99,5.29,11.31,9.47,18.72,11.88
	c9.39,3.05,19.06,2.85,27.78-0.04c0,0,0,0,0,0c0,0,0,0,0,0C1127.54,387.45,1122.01,379.51,1114.03,373.7z M1122.03,404.97
	c-2.49-1.81-5.96-1.25-7.77,1.23c-1.81,2.48-1.25,5.96,1.23,7.77c2.49,1.81,5.96,1.25,7.77-1.23
	C1125.07,410.25,1124.52,406.77,1122.03,404.97z M1051.4,383.62c-5.77,7.94-8.56,17.13-8.53,26.25c0,0,16.46-16.6,35.35-6.41
	c1.65,9.69,7.65,18.51,17.07,23.36c6.34,3.26,13.26,4.24,19.81,3.2c-1-6.55-4.01-12.86-9.02-17.93c-7.5-7.57-17.83-10.63-27.64-9.22
	c-15.34-14.8-4.7-35.47-4.7-35.47C1065.05,370.19,1057.17,375.69,1051.4,383.62z M1100.06,435.21c-2.49-1.81-5.96-1.25-7.77,1.23
	c-1.81,2.49-1.25,5.96,1.23,7.77c2.49,1.81,5.96,1.25,7.77-1.23C1103.1,440.49,1102.55,437.01,1100.06,435.21z M1135.98,373.76
	c-2.92-0.95-6.06,0.65-7.01,3.57c-0.95,2.92,0.65,6.06,3.57,7.01c2.92,0.95,6.06-0.65,7.01-3.57
	C1140.5,377.85,1138.9,374.71,1135.98,373.76z M786.77,446.26c9.87-7.17,15.89-17.65,17.76-28.79c0.42-2.5,0.71-5.02,0.71-7.57
	c-0.01,0-0.01,0-0.02,0c0-0.01,0-0.01,0-0.02c-6.72,0-13.39,1.53-19.48,4.46c-6.49,3.11-12.33,7.8-16.85,14.03
	c-5.8,7.99-8.6,17.25-8.55,26.43h0c0,0,0,0,0,0C769.52,454.86,778.79,452.06,786.77,446.26z M733.83,406.2
	c-1.81-2.49-5.28-3.04-7.77-1.23c-2.49,1.81-3.04,5.28-1.23,7.77c1.81,2.49,5.28,3.04,7.77,1.23
	C735.08,412.17,735.63,408.69,733.83,406.2z M774.33,339.75c-3.03-9.33-8.83-16.99-16.22-22.33c0,0,3.75,23.08-15.59,32.36
	c-8.81-4.36-19.47-4.69-28.93,0.08c-6.37,3.21-11.23,8.23-14.23,14.15c5.89,3.04,12.76,4.32,19.81,3.24
	c10.53-1.62,19.08-8.18,23.7-16.94c20.99-3.71,31.46,17.05,31.46,17.05C777.17,358.68,777.36,349.08,774.33,339.75z M745.54,396.25
	c11.58-3.76,20.53-11.85,25.76-21.85c1.19-2.26,2.25-4.59,3.04-7.02c-0.01,0-0.01,0-0.02,0c0-0.01,0.01-0.01,0.01-0.02
	c-6.34-2.07-13.1-2.66-19.75-1.79c-7.18,0.94-14.25,3.59-20.52,8.15c-7.99,5.8-13.51,13.75-16.3,22.49c0,0,0,0,0,0l0,0
	C726.48,399.1,736.16,399.3,745.54,396.25z M748.03,435.21c-2.49,1.81-3.04,5.28-1.23,7.77c1.81,2.49,5.28,3.04,7.77,1.23
	c2.49-1.81,3.04-5.28,1.23-7.77C753.99,433.96,750.51,433.41,748.03,435.21z M774.36,367.4c0,0,10.7,20.79-4.83,35.6
	c-9.72-1.43-19.97,1.56-27.49,9.01c-5.06,5.02-8.13,11.3-9.16,17.85c6.54,1.07,13.47,0.17,19.84-3.04
	c9.51-4.79,15.62-13.67,17.31-23.43c18.82-10.01,35.19,6.49,35.19,6.49c0.02-9.12-2.77-18.31-8.53-26.25
	C790.92,375.69,783.04,370.2,774.36,367.4z M721.79,335.94c12.2,0,23.22-4.94,31.28-12.85c1.82-1.78,3.53-3.65,5.03-5.71
	c0,0-0.01-0.01-0.01-0.01c0-0.01,0.01-0.01,0.01-0.02c-5.42-3.95-11.7-6.63-18.33-7.85c-7.09-1.31-14.59-0.93-21.94,1.45
	c-9.39,3.05-17.1,8.9-22.45,16.36c0,0,0,0,0,0c0,0,0,0,0,0C702.78,332.76,711.92,335.94,721.79,335.94z M758.1,264.85
	c0,0-3.56,23.11-24.83,25.96c-7.03-6.87-17.07-10.48-27.54-8.87c-7.05,1.09-13.22,4.36-17.91,9.06c4.66,4.71,10.8,8.05,17.84,9.2
	c10.51,1.72,20.68-1.88,27.78-8.78c21.11,2.96,24.65,25.93,24.65,25.93c5.38-7.37,8.53-16.44,8.53-26.25
	C766.63,281.29,763.48,272.22,758.1,264.85z M704,348.8c2.92-0.95,4.52-4.09,3.57-7.01c-0.95-2.92-4.09-4.52-7.01-3.57
	c-2.92,0.95-4.52,4.09-3.57,7.01C697.94,348.15,701.08,349.75,704,348.8z M719.12,377.34c-0.95-2.92-4.09-4.52-7.01-3.57
	c-2.92,0.95-4.52,4.09-3.57,7.01c0.95,2.92,4.09,4.52,7.01,3.57C718.47,383.4,720.07,380.26,719.12,377.34z M837.81,496.03
	c-2.92-0.95-6.06,0.65-7.01,3.57c-0.95,2.92,0.65,6.06,3.57,7.01c2.92,0.95,6.06-0.65,7.01-3.57
	C842.33,500.11,840.73,496.98,837.81,496.03z M873.36,507.58c-2.92-0.95-6.06,0.65-7.01,3.57c-0.95,2.92,0.65,6.06,3.57,7.01
	c2.92,0.95,6.06-0.65,7.01-3.57C877.88,511.66,876.28,508.53,873.36,507.58z M905.36,512.64c-3.07,0-5.56,2.49-5.56,5.56
	c0,3.07,2.49,5.56,5.56,5.56c3.07,0,5.56-2.49,5.56-5.56C910.92,515.13,908.43,512.64,905.36,512.64z M875.4,440.81
	c-9.33-3.03-18.94-2.84-27.6,0c0,0,20.88,10.53,17.02,31.64c-8.71,4.56-15.24,13-16.94,23.45c-1.15,7.04,0.06,13.92,3.08,19.83
	c5.92-2.97,11-7.78,14.27-14.12c4.88-9.47,4.6-20.25,0.23-29.13c9.34-19.16,32.28-15.43,32.28-15.43
	C892.39,449.64,884.73,443.85,875.4,440.81z M901.45,463.07c-1.07-2.1-2.29-4.12-3.68-6.03c0,0-0.01,0.01-0.01,0.01
	c0-0.01-0.01-0.01-0.01-0.02c-5.4,3.92-9.86,9.03-13.06,14.93c-3.47,6.36-5.47,13.64-5.47,21.39c0,9.87,3.18,19.01,8.62,26.41
	c0,0,0,0,0,0c0,0,0,0,0,0c7.46-5.35,13.31-13.06,16.36-22.45C908.02,485.52,906.68,473.29,901.45,463.07z M778.71,459.35
	c-2.49-1.81-5.96-1.25-7.77,1.23c-1.81,2.49-1.25,5.96,1.23,7.77c2.49,1.81,5.96,1.25,7.77-1.23
	C781.74,464.63,781.19,461.15,778.71,459.35z M841.44,481.08c7.15-9.85,9.64-21.64,8-32.79c-0.37-2.53-0.88-5.05-1.67-7.49
	c-0.01,0-0.01,0-0.02,0.01c0-0.01,0-0.01-0.01-0.02c-6.35,2.06-12.18,5.55-17.05,10.17c-5.25,4.98-9.4,11.27-11.79,18.64
	c-3.05,9.39-2.85,19.06,0.04,27.78c0,0,0,0,0,0c0,0,0,0,0,0C827.69,494.59,835.63,489.07,841.44,481.08z M808.95,481.32
	c-2.48-1.81-5.96-1.25-7.77,1.23c-1.81,2.49-1.25,5.96,1.23,7.77c2.48,1.81,5.96,1.25,7.77-1.23
	C811.98,486.6,811.43,483.13,808.95,481.32z M702.5,309.79c0-3.07-2.49-5.56-5.56-5.56c-3.07,0-5.56,2.49-5.56,5.56
	c0,3.07,2.49,5.56,5.56,5.56C700.01,315.35,702.5,312.86,702.5,309.79z M831.52,418.46c-7.94-5.77-17.13-8.56-26.25-8.53
	c0,0,16.6,16.46,6.41,35.35c-9.69,1.65-18.51,7.65-23.36,17.07c-3.26,6.34-4.24,13.26-3.2,19.81c6.55-1,12.86-4.01,17.93-9.02
	c7.57-7.5,10.63-17.83,9.22-27.64c14.8-15.34,35.47-4.7,35.47-4.7C844.95,432.1,839.46,424.22,831.52,418.46z"/>
<g>
	<linearGradient id="SVGID_15_" gradientUnits="userSpaceOnUse" x1="938.8091" y1="933.7997" x2="980.8328" y2="933.7997">
		<stop  offset="0" style="stop-color:#F7DE7B"/>
		<stop  offset="0.0995" style="stop-color:#DBB85B"/>
		<stop  offset="0.1991" style="stop-color:#C59942"/>
		<stop  offset="0.2837" style="stop-color:#B78632"/>
		<stop  offset="0.3424" style="stop-color:#B27F2C"/>
		<stop  offset="0.3673" style="stop-color:#BA8A35"/>
		<stop  offset="0.4474" style="stop-color:#D0A84E"/>
		<stop  offset="0.5318" style="stop-color:#E1C062"/>
		<stop  offset="0.6213" style="stop-color:#EDD170"/>
		<stop  offset="0.7193" style="stop-color:#F5DB78"/>
		<stop  offset="0.8422" style="stop-color:#F7DE7B"/>
		<stop  offset="0.8734" style="stop-color:#F4DA77"/>
		<stop  offset="0.9063" style="stop-color:#EBCD6D"/>
		<stop  offset="0.9399" style="stop-color:#DBB85B"/>
		<stop  offset="0.9739" style="stop-color:#C69B43"/>
		<stop  offset="1" style="stop-color:#B27F2C"/>
	</linearGradient>
	<path class="st14" d="M980.83,933.8c0,11.6-9.41,21.01-21.01,21.01s-21.01-9.41-21.01-21.01c0-11.6,9.41-21.01,21.01-21.01
		S980.83,922.2,980.83,933.8z"/>
	<linearGradient id="SVGID_16_" gradientUnits="userSpaceOnUse" x1="1000.1666" y1="933.7935" x2="1576.0974" y2="933.7935">
		<stop  offset="0" style="stop-color:#F7DE7B"/>
		<stop  offset="0.0995" style="stop-color:#DBB85B"/>
		<stop  offset="0.1991" style="stop-color:#C59942"/>
		<stop  offset="0.2837" style="stop-color:#B78632"/>
		<stop  offset="0.3424" style="stop-color:#B27F2C"/>
		<stop  offset="0.3673" style="stop-color:#BA8A35"/>
		<stop  offset="0.4474" style="stop-color:#D0A84E"/>
		<stop  offset="0.5318" style="stop-color:#E1C062"/>
		<stop  offset="0.6213" style="stop-color:#EDD170"/>
		<stop  offset="0.7193" style="stop-color:#F5DB78"/>
		<stop  offset="0.8422" style="stop-color:#F7DE7B"/>
		<stop  offset="0.8734" style="stop-color:#F4DA77"/>
		<stop  offset="0.9063" style="stop-color:#EBCD6D"/>
		<stop  offset="0.9399" style="stop-color:#DBB85B"/>
		<stop  offset="0.9739" style="stop-color:#C69B43"/>
		<stop  offset="1" style="stop-color:#B27F2C"/>
	</linearGradient>
	<path class="st15" d="M1576.1,933.79l-570.96,4.92c-2.72,0.02-4.94-2.16-4.97-4.88c-0.02-2.72,2.16-4.94,4.88-4.97
		c0.02,0,0.07,0,0.08,0L1576.1,933.79z"/>
	<linearGradient id="SVGID_17_" gradientUnits="userSpaceOnUse" x1="343.5379" y1="933.7933" x2="919.4879" y2="933.7933">
		<stop  offset="0" style="stop-color:#F7DE7B"/>
		<stop  offset="0.0995" style="stop-color:#DBB85B"/>
		<stop  offset="0.1991" style="stop-color:#C59942"/>
		<stop  offset="0.2837" style="stop-color:#B78632"/>
		<stop  offset="0.3424" style="stop-color:#B27F2C"/>
		<stop  offset="0.3673" style="stop-color:#BA8A35"/>
		<stop  offset="0.4474" style="stop-color:#D0A84E"/>
		<stop  offset="0.5318" style="stop-color:#E1C062"/>
		<stop  offset="0.6213" style="stop-color:#EDD170"/>
		<stop  offset="0.7193" style="stop-color:#F5DB78"/>
		<stop  offset="0.8422" style="stop-color:#F7DE7B"/>
		<stop  offset="0.8734" style="stop-color:#F4DA77"/>
		<stop  offset="0.9063" style="stop-color:#EBCD6D"/>
		<stop  offset="0.9399" style="stop-color:#DBB85B"/>
		<stop  offset="0.9739" style="stop-color:#C69B43"/>
		<stop  offset="1" style="stop-color:#B27F2C"/>
	</linearGradient>
	<path class="st16" d="M914.52,938.72l-570.98-4.92l570.98-4.92c2.72-0.02,4.94,2.16,4.97,4.88c0.02,2.72-2.16,4.94-4.88,4.97
		C914.59,938.72,914.54,938.72,914.52,938.72z"/>
	<g>
		<linearGradient id="SVGID_18_" gradientUnits="userSpaceOnUse" x1="977.0507" y1="978.3622" x2="1031.0909" y2="978.3622">
			<stop  offset="0" style="stop-color:#F7DE7B"/>
			<stop  offset="0.0995" style="stop-color:#DBB85B"/>
			<stop  offset="0.1991" style="stop-color:#C59942"/>
			<stop  offset="0.2837" style="stop-color:#B78632"/>
			<stop  offset="0.3424" style="stop-color:#B27F2C"/>
			<stop  offset="0.3673" style="stop-color:#BA8A35"/>
			<stop  offset="0.4474" style="stop-color:#D0A84E"/>
			<stop  offset="0.5318" style="stop-color:#E1C062"/>
			<stop  offset="0.6213" style="stop-color:#EDD170"/>
			<stop  offset="0.7193" style="stop-color:#F5DB78"/>
			<stop  offset="0.8422" style="stop-color:#F7DE7B"/>
			<stop  offset="0.8734" style="stop-color:#F4DA77"/>
			<stop  offset="0.9063" style="stop-color:#EBCD6D"/>
			<stop  offset="0.9399" style="stop-color:#DBB85B"/>
			<stop  offset="0.9739" style="stop-color:#C69B43"/>
			<stop  offset="1" style="stop-color:#B27F2C"/>
		</linearGradient>
		<path class="st17" d="M979.64,967.73c2.51,7.76,7.06,14.2,12.74,19.97c5.89,5.99,13.02,9.57,21.13,11.23
			c3.42,0.7,6.95,0.88,10.43,1.29c0.48,0.06,0.97,0.09,1.45,0.04c2.06-0.19,4.24-0.3,5.32-2.44c1.02-2.04-0.21-3.75-1.24-5.38
			c-3.77-5.9-7.43-11.88-11.46-17.6c-2.21-3.13-4.9-5.98-7.68-8.64c-4.46-4.27-9.87-7.02-15.93-8.2c-4.14-0.8-8.36-1.26-12.57-1.54
			c-4.21-0.28-5.5,1.42-4.4,5.52C977.96,963.96,978.89,965.82,979.64,967.73z"/>
		<linearGradient id="SVGID_19_" gradientUnits="userSpaceOnUse" x1="1017.3414" y1="962.5848" x2="1054.7919" y2="962.5848">
			<stop  offset="0" style="stop-color:#F7DE7B"/>
			<stop  offset="0.0995" style="stop-color:#DBB85B"/>
			<stop  offset="0.1991" style="stop-color:#C59942"/>
			<stop  offset="0.2837" style="stop-color:#B78632"/>
			<stop  offset="0.3424" style="stop-color:#B27F2C"/>
			<stop  offset="0.3673" style="stop-color:#BA8A35"/>
			<stop  offset="0.4474" style="stop-color:#D0A84E"/>
			<stop  offset="0.5318" style="stop-color:#E1C062"/>
			<stop  offset="0.6213" style="stop-color:#EDD170"/>
			<stop  offset="0.7193" style="stop-color:#F5DB78"/>
			<stop  offset="0.8422" style="stop-color:#F7DE7B"/>
			<stop  offset="0.8734" style="stop-color:#F4DA77"/>
			<stop  offset="0.9063" style="stop-color:#EBCD6D"/>
			<stop  offset="0.9399" style="stop-color:#DBB85B"/>
			<stop  offset="0.9739" style="stop-color:#C69B43"/>
			<stop  offset="1" style="stop-color:#B27F2C"/>
		</linearGradient>
		<path class="st18" d="M1054,970.22c0.92-0.92,1.08-2.43,0.26-3.44c-0.09-0.11-0.19-0.22-0.3-0.32c-3.1-2.85-6.12-5.83-9.47-8.36
			c-6.87-5.18-14.65-6.32-22.93-4.24c-0.96,0.24-1.86,0.68-2.67,1.05c-0.52,0.24-0.93,0.67-1.14,1.2c-0.91,2.31-0.2,4.14,1.19,6.07
			c5.37,7.44,12.92,10.19,21.68,10.14c3.7-0.02,7.41-0.69,11.1-1.18C1052.94,970.96,1053.36,970.85,1054,970.22z"/>
		<linearGradient id="SVGID_20_" gradientUnits="userSpaceOnUse" x1="946.2294" y1="992.911" x2="975.4638" y2="992.911">
			<stop  offset="0" style="stop-color:#F7DE7B"/>
			<stop  offset="0.0995" style="stop-color:#DBB85B"/>
			<stop  offset="0.1991" style="stop-color:#C59942"/>
			<stop  offset="0.2837" style="stop-color:#B78632"/>
			<stop  offset="0.3424" style="stop-color:#B27F2C"/>
			<stop  offset="0.3673" style="stop-color:#BA8A35"/>
			<stop  offset="0.4474" style="stop-color:#D0A84E"/>
			<stop  offset="0.5318" style="stop-color:#E1C062"/>
			<stop  offset="0.6213" style="stop-color:#EDD170"/>
			<stop  offset="0.7193" style="stop-color:#F5DB78"/>
			<stop  offset="0.8422" style="stop-color:#F7DE7B"/>
			<stop  offset="0.8734" style="stop-color:#F4DA77"/>
			<stop  offset="0.9063" style="stop-color:#EBCD6D"/>
			<stop  offset="0.9399" style="stop-color:#DBB85B"/>
			<stop  offset="0.9739" style="stop-color:#C69B43"/>
			<stop  offset="1" style="stop-color:#B27F2C"/>
		</linearGradient>
		<path class="st19" d="M961.09,1024.79c1.15,0.46,2.47,0.17,3.29-0.76c0.51-0.57,0.98-1.18,1.28-1.86
			c2.71-6.32,5.66-12.58,7.74-19.11c4.25-13.39,1.78-25.97-5.9-37.58c-0.92-1.38-2.12-2.57-3.15-3.64c-0.57-0.6-1.35-0.96-2.18-1
			c-4.16-0.22-6.64,1.87-8.88,5.1c-8.54,12.3-8.68,25.41-3.86,38.86c2.04,5.69,5.07,11.03,7.82,16.44
			C958.39,1023.49,958.72,1023.84,961.09,1024.79z"/>
		<linearGradient id="SVGID_21_" gradientUnits="userSpaceOnUse" x1="888.6538" y1="978.3622" x2="942.694" y2="978.3622">
			<stop  offset="0" style="stop-color:#F7DE7B"/>
			<stop  offset="0.0995" style="stop-color:#DBB85B"/>
			<stop  offset="0.1991" style="stop-color:#C59942"/>
			<stop  offset="0.2837" style="stop-color:#B78632"/>
			<stop  offset="0.3424" style="stop-color:#B27F2C"/>
			<stop  offset="0.3673" style="stop-color:#BA8A35"/>
			<stop  offset="0.4474" style="stop-color:#D0A84E"/>
			<stop  offset="0.5318" style="stop-color:#E1C062"/>
			<stop  offset="0.6213" style="stop-color:#EDD170"/>
			<stop  offset="0.7193" style="stop-color:#F5DB78"/>
			<stop  offset="0.8422" style="stop-color:#F7DE7B"/>
			<stop  offset="0.8734" style="stop-color:#F4DA77"/>
			<stop  offset="0.9063" style="stop-color:#EBCD6D"/>
			<stop  offset="0.9399" style="stop-color:#DBB85B"/>
			<stop  offset="0.9739" style="stop-color:#C69B43"/>
			<stop  offset="1" style="stop-color:#B27F2C"/>
		</linearGradient>
		<path class="st20" d="M940.1,967.73c-2.51,7.76-7.06,14.2-12.74,19.97c-5.89,5.99-13.02,9.57-21.13,11.23
			c-3.42,0.7-6.95,0.88-10.43,1.29c-0.48,0.06-0.97,0.09-1.45,0.04c-2.06-0.19-4.24-0.3-5.32-2.44c-1.02-2.04,0.21-3.75,1.25-5.38
			c3.77-5.9,7.43-11.88,11.46-17.6c2.21-3.13,4.9-5.98,7.68-8.64c4.46-4.27,9.87-7.02,15.93-8.2c4.14-0.8,8.36-1.26,12.57-1.54
			c4.21-0.28,5.5,1.42,4.4,5.52C941.79,963.96,940.85,965.82,940.1,967.73z"/>
		<linearGradient id="SVGID_22_" gradientUnits="userSpaceOnUse" x1="864.85" y1="962.5848" x2="902.4033" y2="962.5848">
			<stop  offset="0" style="stop-color:#F7DE7B"/>
			<stop  offset="0.0995" style="stop-color:#DBB85B"/>
			<stop  offset="0.1991" style="stop-color:#C59942"/>
			<stop  offset="0.2837" style="stop-color:#B78632"/>
			<stop  offset="0.3424" style="stop-color:#B27F2C"/>
			<stop  offset="0.3673" style="stop-color:#BA8A35"/>
			<stop  offset="0.4474" style="stop-color:#D0A84E"/>
			<stop  offset="0.5318" style="stop-color:#E1C062"/>
			<stop  offset="0.6213" style="stop-color:#EDD170"/>
			<stop  offset="0.7193" style="stop-color:#F5DB78"/>
			<stop  offset="0.8422" style="stop-color:#F7DE7B"/>
			<stop  offset="0.8734" style="stop-color:#F4DA77"/>
			<stop  offset="0.9063" style="stop-color:#EBCD6D"/>
			<stop  offset="0.9399" style="stop-color:#DBB85B"/>
			<stop  offset="0.9739" style="stop-color:#C69B43"/>
			<stop  offset="1" style="stop-color:#B27F2C"/>
		</linearGradient>
		<path class="st21" d="M865.45,969.9c-0.67-0.74-0.8-1.84-0.27-2.69c0.17-0.28,0.37-0.55,0.61-0.76c3.1-2.85,6.12-5.83,9.47-8.36
			c6.87-5.18,14.65-6.32,22.93-4.24c0.97,0.24,1.89,0.69,2.71,1.07c0.49,0.23,0.88,0.63,1.08,1.14c0.93,2.33,0.23,4.17-1.17,6.11
			c-5.37,7.44-12.92,10.19-21.68,10.14c-3.7-0.02-7.41-0.69-11.1-1.18C866.63,970.94,866.28,970.82,865.45,969.9z"/>
		<linearGradient id="SVGID_23_" gradientUnits="userSpaceOnUse" x1="986.7664" y1="1010.3318" x2="997.0545" y2="1010.3318">
			<stop  offset="0" style="stop-color:#F7DE7B"/>
			<stop  offset="0.0995" style="stop-color:#DBB85B"/>
			<stop  offset="0.1991" style="stop-color:#C59942"/>
			<stop  offset="0.2837" style="stop-color:#B78632"/>
			<stop  offset="0.3424" style="stop-color:#B27F2C"/>
			<stop  offset="0.3673" style="stop-color:#BA8A35"/>
			<stop  offset="0.4474" style="stop-color:#D0A84E"/>
			<stop  offset="0.5318" style="stop-color:#E1C062"/>
			<stop  offset="0.6213" style="stop-color:#EDD170"/>
			<stop  offset="0.7193" style="stop-color:#F5DB78"/>
			<stop  offset="0.8422" style="stop-color:#F7DE7B"/>
			<stop  offset="0.8734" style="stop-color:#F4DA77"/>
			<stop  offset="0.9063" style="stop-color:#EBCD6D"/>
			<stop  offset="0.9399" style="stop-color:#DBB85B"/>
			<stop  offset="0.9739" style="stop-color:#C69B43"/>
			<stop  offset="1" style="stop-color:#B27F2C"/>
		</linearGradient>
		<circle class="st22" cx="991.91" cy="1010.33" r="5.14"/>
		<linearGradient id="SVGID_24_" gradientUnits="userSpaceOnUse" x1="1043.6605" y1="988.4552" x2="1049.6466" y2="988.4552">
			<stop  offset="0" style="stop-color:#F7DE7B"/>
			<stop  offset="0.0995" style="stop-color:#DBB85B"/>
			<stop  offset="0.1991" style="stop-color:#C59942"/>
			<stop  offset="0.2837" style="stop-color:#B78632"/>
			<stop  offset="0.3424" style="stop-color:#B27F2C"/>
			<stop  offset="0.3673" style="stop-color:#BA8A35"/>
			<stop  offset="0.4474" style="stop-color:#D0A84E"/>
			<stop  offset="0.5318" style="stop-color:#E1C062"/>
			<stop  offset="0.6213" style="stop-color:#EDD170"/>
			<stop  offset="0.7193" style="stop-color:#F5DB78"/>
			<stop  offset="0.8422" style="stop-color:#F7DE7B"/>
			<stop  offset="0.8734" style="stop-color:#F4DA77"/>
			<stop  offset="0.9063" style="stop-color:#EBCD6D"/>
			<stop  offset="0.9399" style="stop-color:#DBB85B"/>
			<stop  offset="0.9739" style="stop-color:#C69B43"/>
			<stop  offset="1" style="stop-color:#B27F2C"/>
		</linearGradient>
		<path class="st23" d="M1049.65,988.46c0,1.65-1.34,2.99-2.99,2.99c-1.65,0-2.99-1.34-2.99-2.99c0-1.65,1.34-2.99,2.99-2.99
			C1048.31,985.46,1049.65,986.8,1049.65,988.46z"/>
		<linearGradient id="SVGID_25_" gradientUnits="userSpaceOnUse" x1="924.6385" y1="1010.3318" x2="934.9268" y2="1010.3318">
			<stop  offset="0" style="stop-color:#F7DE7B"/>
			<stop  offset="0.0995" style="stop-color:#DBB85B"/>
			<stop  offset="0.1991" style="stop-color:#C59942"/>
			<stop  offset="0.2837" style="stop-color:#B78632"/>
			<stop  offset="0.3424" style="stop-color:#B27F2C"/>
			<stop  offset="0.3673" style="stop-color:#BA8A35"/>
			<stop  offset="0.4474" style="stop-color:#D0A84E"/>
			<stop  offset="0.5318" style="stop-color:#E1C062"/>
			<stop  offset="0.6213" style="stop-color:#EDD170"/>
			<stop  offset="0.7193" style="stop-color:#F5DB78"/>
			<stop  offset="0.8422" style="stop-color:#F7DE7B"/>
			<stop  offset="0.8734" style="stop-color:#F4DA77"/>
			<stop  offset="0.9063" style="stop-color:#EBCD6D"/>
			<stop  offset="0.9399" style="stop-color:#DBB85B"/>
			<stop  offset="0.9739" style="stop-color:#C69B43"/>
			<stop  offset="1" style="stop-color:#B27F2C"/>
		</linearGradient>
		<circle class="st24" cx="929.78" cy="1010.33" r="5.14"/>
		<linearGradient id="SVGID_26_" gradientUnits="userSpaceOnUse" x1="872.0465" y1="988.4552" x2="878.0326" y2="988.4552">
			<stop  offset="0" style="stop-color:#F7DE7B"/>
			<stop  offset="0.0995" style="stop-color:#DBB85B"/>
			<stop  offset="0.1991" style="stop-color:#C59942"/>
			<stop  offset="0.2837" style="stop-color:#B78632"/>
			<stop  offset="0.3424" style="stop-color:#B27F2C"/>
			<stop  offset="0.3673" style="stop-color:#BA8A35"/>
			<stop  offset="0.4474" style="stop-color:#D0A84E"/>
			<stop  offset="0.5318" style="stop-color:#E1C062"/>
			<stop  offset="0.6213" style="stop-color:#EDD170"/>
			<stop  offset="0.7193" style="stop-color:#F5DB78"/>
			<stop  offset="0.8422" style="stop-color:#F7DE7B"/>
			<stop  offset="0.8734" style="stop-color:#F4DA77"/>
			<stop  offset="0.9063" style="stop-color:#EBCD6D"/>
			<stop  offset="0.9399" style="stop-color:#DBB85B"/>
			<stop  offset="0.9739" style="stop-color:#C69B43"/>
			<stop  offset="1" style="stop-color:#B27F2C"/>
		</linearGradient>
		<path class="st25" d="M872.05,988.46c0,1.65,1.34,2.99,2.99,2.99c1.65,0,2.99-1.34,2.99-2.99c0-1.65-1.34-2.99-2.99-2.99
			C873.39,985.46,872.05,986.8,872.05,988.46z"/>
	</g>
</g>
</svg>
